<svg width="24" height="25" viewBox="0 0 24 25" fill="none" xmlns="http://www.w3.org/2000/svg">
<path d="M17.9147 6.64772C16.9849 5.71697 14.75 5.0061 13.1183 4.68022C11.1187 4.28085 9.27678 4.25722 9.19953 4.25635L9.18241 5.85635C9.20003 5.85647 10.9578 5.88022 12.805 6.24935C14.7933 6.64635 16.3384 7.33347 16.7828 7.7786C18.3913 9.38847 17.775 13.4071 16.6439 15.4663C15.9933 16.6516 12.5213 18.4808 10.3824 18.4913C10.1417 18.4878 9.57078 18.4651 9.42116 18.2005C9.24578 17.805 9.19578 15.817 9.25878 14.2082C9.26753 13.9845 9.18216 13.7672 9.02328 13.6093C8.86441 13.4516 8.64903 13.3692 8.42291 13.3776L6.47416 13.4667L7.32691 10.024L5.77378 9.63935L4.66353 14.1222C4.60291 14.3673 4.66128 14.6265 4.82141 14.8217C4.98141 15.017 5.22303 15.1247 5.47641 15.1137L7.63428 15.0155C7.60691 16.4665 7.65216 18.2623 8.01966 18.9147C8.30728 19.4265 8.94741 19.9767 10.3653 19.9767C10.3734 19.9767 10.3819 19.9767 10.39 19.9767C12.986 19.9767 17.0644 17.9677 18.0462 16.1793C18.7815 14.8407 19.2679 13.061 19.348 11.3702C19.4163 9.92585 19.223 7.95785 17.9144 6.6481L17.9147 6.64772Z" fill="#2D2B29"/>
<path d="M11.6432 12.4294C12.903 12.4294 13.9236 11.4086 13.9236 10.1494C13.9236 8.89013 12.9036 7.86938 11.643 7.86938C10.3868 7.86938 9.36359 8.89013 9.36359 10.1494C9.36359 11.4086 10.3868 12.4294 11.6432 12.4294Z" fill="#2D2B29"/>
</svg>
