<svg width="24" height="25" viewBox="0 0 24 25" fill="none" xmlns="http://www.w3.org/2000/svg">
<path d="M19.2002 4.18714H4.80024C4.35837 4.18714 4.00024 4.52939 4.00024 4.97114V16.8878C4.00024 17.3296 4.35837 17.6271 4.80024 17.6271H7.92749L6.80324 18.986L8.02462 20.0348L8.98512 18.907L10.263 17.4006C10.3892 17.2515 10.4539 17.0538 10.4522 16.8573C10.4517 16.7958 10.4429 16.7349 10.4292 16.6751C10.4171 16.6215 10.4012 16.5688 10.3782 16.5188C10.2472 16.2363 9.96399 16.0269 9.65249 16.0269H5.60037V5.78689H18.4004V16.0269H14.3482C14.0367 16.0269 13.7535 16.2379 13.6225 16.5206C13.5734 16.6263 13.5492 16.7411 13.5482 16.8559C13.547 17.0481 13.6116 17.2404 13.7377 17.3891L15.9764 20.0459L17.1979 18.9838L16.0734 17.6268H19.2006C19.6425 17.6268 20.0006 17.3294 20.0006 16.8874V4.97077C20.0006 4.52902 19.6425 4.18677 19.2006 4.18677L19.2002 4.18714Z" fill="#2D2B29"/>
<path d="M16.8859 14.5128C17.0361 14.3629 17.1202 14.1593 17.1202 13.9471L17.12 7.86714C17.12 7.42526 16.7619 7.06714 16.32 7.06714H7.68025C7.46812 7.06714 7.26462 7.15126 7.11462 7.30151C6.96437 7.45139 6.88025 7.65501 6.88025 7.86714L6.88062 13.9471C6.88062 14.389 7.23875 14.7471 7.68062 14.7471H16.3204C16.5325 14.7471 16.736 14.663 16.8859 14.5128ZM8.48062 13.1471L8.48037 8.66714H15.52L15.5202 13.1471H8.48062Z" fill="#2D2B29"/>
</svg>
