<svg width="24" height="25" viewBox="0 0 24 25" fill="none" xmlns="http://www.w3.org/2000/svg">
<path d="M17.7852 5.07576C17.7851 4.74476 17.5808 4.44789 17.2717 4.32939C16.9627 4.21101 16.6123 4.29489 16.3907 4.54076L12.3051 9.07626H8.98881C7.45231 9.07626 6.26756 10.1906 6.20881 11.6713C6.20781 11.6993 6.22481 12.1029 6.22481 12.1316V12.179C6.22481 12.3185 6.20656 12.6888 6.20756 12.7155C6.26718 14.2378 7.50431 15.4763 8.98743 15.4763H12.3733L16.4143 19.7088C16.5682 19.87 16.7784 19.9563 16.9931 19.9563C17.0932 19.9563 17.1942 19.9375 17.2907 19.8988C17.5941 19.777 17.7931 19.4828 17.7929 19.1558L17.7852 5.07576ZM7.80681 12.6684C7.80618 12.6201 7.82493 12.304 7.82493 12.1814V12.1315C7.82493 12.1065 7.80743 11.7693 7.80793 11.7314C7.83206 11.12 8.31831 10.6764 8.98893 10.6764H12.6612C12.8879 10.6764 13.1039 10.5803 13.2556 10.4119L16.1862 7.15864L16.1916 17.1589L13.2943 14.1239C13.1433 13.966 12.9343 13.8764 12.7156 13.8764H8.98743C8.36343 13.8764 7.83243 13.3159 7.80681 12.6684Z" fill="#2D2B29"/>
</svg>
