<svg width="24" height="25" viewBox="0 0 24 25" fill="none" xmlns="http://www.w3.org/2000/svg">
<path d="M17.7644 11.515H6.2444C5.80252 11.515 5.4444 11.8113 5.4444 12.253V19.1478C5.4444 19.3599 5.52877 19.5873 5.67902 19.7374C5.8289 19.8873 6.0324 19.9951 6.24452 19.9951C6.2449 19.9951 6.24502 19.9951 6.24527 19.9951H17.7645C18.206 19.9946 18.5644 19.5644 18.5644 19.1229V12.2533C18.5644 11.8115 18.2064 11.5151 17.7644 11.515ZM16.9644 18.3235L7.0444 18.347V13.115H16.9644V18.3235Z" fill="#2D2B29"/>
<path d="M17.2844 10.923H15.6843V9.23499C15.6843 7.36024 14.0336 5.83499 12.0044 5.83499C9.97515 5.83499 8.3244 7.36024 8.3244 9.23499V10.923H6.7244V9.23499C6.7244 6.47799 9.09302 4.23499 12.0044 4.23499C14.9158 4.23499 17.2844 6.47799 17.2844 9.23499V10.923Z" fill="#2D2B29"/>
</svg>
