<svg width="24" height="25" viewBox="0 0 24 25" fill="none" xmlns="http://www.w3.org/2000/svg">
<path d="M19.2 9.16455H4.8C4.35825 9.16455 4 9.44518 4 9.88718V18.6872C4 18.8994 4.08425 19.1417 4.23462 19.2918C4.3845 19.4416 4.58812 19.5646 4.80013 19.5646H4.80075H19.2008C19.6424 19.5643 20.0001 19.1173 20.0001 18.6758V9.88705C20.0001 9.4453 19.6419 9.16468 19.2001 9.16468L19.2 9.16455ZM18.4 17.9646H5.6V10.7646H18.4V17.9646Z" fill="#2D2B29"/>
<path d="M9.92001 7.57864C9.92001 6.96789 10.3913 6.42077 10.9669 6.29452C11.104 6.28464 11.6136 6.27352 12.0188 6.26889C12.438 6.27614 12.9195 6.29239 13.0689 6.30677C13.5814 6.44952 13.9201 6.97889 13.9201 7.57864V8.52452H15.5201V7.57864C15.5201 6.21964 14.6851 5.05452 13.4329 4.74552C13.3528 4.72564 13.2235 4.68877 12.0343 4.66889C12.0268 4.66839 12.0291 4.66864 12.0215 4.66864C10.906 4.68177 10.748 4.70564 10.6815 4.71852C9.35526 4.97827 8.32001 6.20777 8.32001 7.57864V8.52452H9.92001V7.57864Z" fill="#2D2B29"/>
</svg>
