<svg width="24" height="25" viewBox="0 0 24 25" fill="none" xmlns="http://www.w3.org/2000/svg">
<path d="M15.2398 10.1885C14.9736 9.72954 14.8383 9.18967 14.8813 8.62317L8.73096 10.6017C8.97621 11.0102 9.12008 11.4862 9.12008 11.9964C9.12008 12.5353 8.96058 13.0365 8.68933 13.4597L14.7946 15.4238C14.7903 14.8617 14.9586 14.3323 15.2551 13.8912L9.49271 12.0374L15.24 10.1887L15.2398 10.1885Z" fill="#2D2B29"/>
<path d="M8.31998 11.9965C8.31998 13.0569 7.46036 13.9165 6.39998 13.9165C5.33961 13.9165 4.47998 13.0569 4.47998 11.9965C4.47998 10.9362 5.33961 10.0765 6.39998 10.0765C7.46036 10.0765 8.31998 10.9362 8.31998 11.9965Z" fill="#2D2B29"/>
<path d="M19.516 8.91658C19.516 9.97696 18.6563 10.8366 17.596 10.8366C16.5356 10.8366 15.676 9.97696 15.676 8.91658C15.676 7.85621 16.5356 6.99658 17.596 6.99658C18.6563 6.99658 19.516 7.85621 19.516 8.91658Z" fill="#2D2B29"/>
<path d="M19.52 15.3166C19.52 16.377 18.6604 17.2366 17.6 17.2366C16.5396 17.2366 15.68 16.377 15.68 15.3166C15.68 14.2562 16.5396 13.3966 17.6 13.3966C18.6604 13.3966 19.52 14.2562 19.52 15.3166Z" fill="#2D2B29"/>
</svg>
