<svg width="24" height="25" viewBox="0 0 24 25" fill="none" xmlns="http://www.w3.org/2000/svg">
<path d="M16.3204 20.1242C16.1255 20.1242 15.9331 20.0529 15.7832 19.9172L11.9974 16.488L8.21437 19.8793C7.97912 20.09 7.64225 20.1427 7.354 20.014C7.06575 19.8854 6.88025 19.5993 6.88025 19.2837V4.90828C6.88025 4.46653 7.23837 4.10828 7.68025 4.10828H16.3202C16.7621 4.10828 17.1202 4.46653 17.1202 4.90828V19.3243C17.1202 19.6408 16.9339 19.9273 16.6446 20.0557C16.5405 20.1018 16.4301 20.1243 16.3205 20.1243L16.3204 20.1242ZM12.0002 14.611C12.1925 14.611 12.3849 14.6802 12.5372 14.818L15.5202 17.5202V5.70815H8.48025V17.492L11.4661 14.8154C11.6181 14.679 11.8094 14.611 12.0002 14.611Z" fill="#2D2B29"/>
</svg>
