<svg width="24" height="25" viewBox="0 0 24 25" fill="none" xmlns="http://www.w3.org/2000/svg">
<path d="M6.79994 18.7672H10.7799V17.1672H6.79994C6.79994 17.1672 6.80157 17.1672 6.80169 17.1672H6.79994C6.79994 15.0872 8.09894 13.6437 10.1607 13.6437C11.8217 13.6437 12.9853 14.6072 13.3756 16.0472H15.0052C14.8146 15.0872 14.3892 14.2239 13.7596 13.5466C12.8617 12.5803 11.5836 12.0698 10.1608 12.0698C8.73807 12.0698 7.45982 12.6131 6.56144 13.5788C5.68669 14.5202 5.20382 15.7513 5.20032 17.2067C5.20357 18.1292 5.91844 18.7673 6.79982 18.7673L6.79994 18.7672Z" fill="#2D2B29"/>
<path d="M12.0799 16.8472V18.7672H18.7999V16.8472H12.0799Z" fill="#2D2B29"/>
<path d="M10.1198 6.90594C10.9154 6.90594 11.5599 7.58694 11.5599 8.42594C11.5599 9.26569 10.9154 9.94594 10.1198 9.94594C9.32444 9.94594 8.67994 9.26569 8.67994 8.42594C8.67994 7.58694 9.32444 6.90594 10.1198 6.90594ZM10.1198 5.46594C8.53182 5.46594 7.23994 6.79382 7.23994 8.42594C7.23994 10.0581 8.53182 11.3859 10.1198 11.3859C11.7079 11.3859 12.9999 10.0581 12.9999 8.42594C12.9999 6.79382 11.7079 5.46594 10.1198 5.46594Z" fill="#2D2B29"/>
</svg>
