<svg width="24" height="25" viewBox="0 0 24 25" fill="none" xmlns="http://www.w3.org/2000/svg">
<path d="M19.71 8.16827C19.5643 7.80352 19.289 7.50502 18.9373 7.33002C18.7559 7.23989 14.4493 5.11902 10.5894 5.11902C8.95279 5.11902 6.70304 5.52002 5.28066 7.42989C3.66079 9.60489 3.57854 13.0195 5.02866 17.8689C5.19341 18.4199 5.64141 18.8401 6.20179 18.9695C6.30416 18.993 6.84591 19.111 7.46529 19.111C8.92454 19.111 9.60379 18.4521 9.91679 17.8993C9.98991 17.7701 10.0492 17.6374 10.0944 17.5006C10.7298 17.493 12.1223 17.4005 12.7014 16.2476C13.5267 16.2119 14.938 15.999 15.4168 14.7331C15.4923 14.5334 15.5355 14.3318 15.5469 14.1289C16.2157 13.9026 16.9938 13.4599 17.272 12.5559C17.2825 12.521 17.2933 12.4829 17.3033 12.4416C18.3268 12.2385 19.0774 11.7913 19.5425 11.1043C19.9275 10.5358 20.2689 9.56502 19.7104 8.16839L19.71 8.16827ZM15.8954 10.9671C15.3298 10.9671 14.8923 10.9045 14.8923 10.9045C17.5895 12.8085 13.1469 12.8879 13.1469 12.8879C14.8327 14.3755 13.5125 14.6545 12.2852 14.6545C11.5488 14.6545 10.8459 14.5539 10.8459 14.5539C11.9037 15.6556 10.978 15.9005 9.94641 15.9005C9.12116 15.9005 8.22766 15.744 8.22766 15.744C9.12016 17.2315 8.24616 17.5106 7.46529 17.5106C6.99666 17.5106 6.56154 17.41 6.56154 17.41C3.99866 8.84014 6.99354 6.71877 10.5894 6.71877C14.1178 6.71877 18.2245 8.76227 18.2245 8.76227C18.9868 10.6684 17.1334 10.967 15.8954 10.9671Z" fill="#2D2B29"/>
</svg>
