<svg width="24" height="25" viewBox="0 0 24 25" fill="none" xmlns="http://www.w3.org/2000/svg">
<g clip-path="url(#clip0_2134_38)">
<path d="M17.9199 11.635H6.39998C5.9581 11.635 5.59998 12.0413 5.59998 12.4829V19.363C5.59998 19.5751 5.68435 19.7549 5.8346 19.9048C5.98448 20.0546 6.18798 20.115 6.4001 20.115C6.40048 20.115 6.4006 20.115 6.40085 20.115H17.9208C18.3625 20.1148 18.7202 19.7943 18.7202 19.3525V12.4829C18.7202 12.0413 18.3621 11.635 17.9202 11.635H17.9199ZM17.12 18.515H7.19998V13.235H17.12V18.515Z" fill="#2D2B29"/>
<path d="M15.7828 8.55789H17.401C17.0914 6.13739 14.9015 4.31714 12.1599 4.31714C9.2485 4.31714 6.88 6.56014 6.88 9.31714V11.027H8.48L8.48013 9.31714C8.48013 7.44239 10.1309 5.91714 12.1599 5.91714C14.0265 5.91714 15.4839 7.01751 15.7828 8.55789Z" fill="#2D2B29"/>
</g>
<defs>
<clipPath id="clip0_2134_38">
<rect width="16" height="16" fill="white" transform="translate(4 4.11499)"/>
</clipPath>
</defs>
</svg>
