<svg width="24" height="25" viewBox="0 0 24 25" fill="none" xmlns="http://www.w3.org/2000/svg">
<path d="M19.2 8.1963H16.88V5.6043C16.88 5.16255 16.6019 4.8363 16.16 4.8363H8.31999C7.87811 4.8363 7.43999 5.16255 7.43999 5.6043V8.1963H4.95999C4.51811 8.1963 4.07999 8.50655 4.07999 8.9483V16.1483C4.07999 16.5901 4.51811 16.9963 4.95999 16.9963H7.27999V18.5643C7.27999 18.7768 7.40449 18.9964 7.55474 19.1464C7.70486 19.2963 7.94824 19.3963 8.15999 19.3963C8.16049 19.3963 8.16074 19.3963 8.16124 19.3963L15.9612 19.3678C16.4026 19.3672 16.72 18.9931 16.72 18.5518V16.9963H19.2C19.6419 16.9963 19.92 16.5901 19.92 16.1483V8.9483C19.92 8.50655 19.6419 8.1963 19.2 8.1963ZM9.03999 6.4363H15.28V7.99793L9.03999 8.00355V6.4363ZM15.12 17.7531L8.87999 17.7629V13.9562H15.12V17.7529V17.7531ZM18.32 15.3963H16.72V13.1243C16.72 12.6826 16.4419 12.3563 16 12.3563H8.15999C7.71811 12.3563 7.27999 12.6826 7.27999 13.1243V15.3963H5.67999V9.7963H18.32V15.3963Z" fill="#2D2B29"/>
</svg>
