<svg width="24" height="25" viewBox="0 0 24 25" fill="none" xmlns="http://www.w3.org/2000/svg">
<g clip-path="url(#clip0_2134_29)">
<path d="M7.03737 17.555H11.0399V15.955H7.03737C7.03737 15.955 7.03899 15.955 7.03924 15.955H7.03737C7.03737 13.875 8.33637 12.5281 10.3984 12.5281C11.0731 12.5281 11.6361 12.7115 12.1577 12.9034C12.2015 12.9195 13.4335 11.8374 13.3859 11.801C12.5481 11.1616 11.536 10.8846 10.4084 10.8846C8.98549 10.8846 7.70249 11.3896 6.80412 12.311C5.92937 13.2086 5.44374 14.5306 5.44049 15.9184C5.44374 16.7991 6.15637 17.555 7.03737 17.555Z" fill="#2D2B29"/>
<path d="M10.3775 5.63495C11.1731 5.63495 11.8175 6.31595 11.8175 7.15495C11.8175 7.9947 11.1732 8.67495 10.3775 8.67495C9.58212 8.67495 8.9375 7.9947 8.9375 7.15495C8.9375 6.31595 9.58225 5.63495 10.3775 5.63495ZM10.3775 4.19495C8.7895 4.19495 7.4975 5.52282 7.4975 7.15495C7.4975 8.78707 8.7895 10.1149 10.3775 10.1149C11.9655 10.1149 13.2576 8.78707 13.2576 7.15495C13.2576 5.52282 11.9655 4.19495 10.3775 4.19495Z" fill="#2D2B29"/>
<path d="M18.9239 15.1906L17.8998 15.0878L18.5648 14.2702C18.6603 14.1529 18.6508 13.9823 18.5433 13.8754L17.7098 13.0427C17.6029 12.9377 17.4315 12.9297 17.3148 13.0226L16.4869 13.6991L16.3789 12.6774C16.3635 12.5278 16.237 12.4351 16.0862 12.4351H14.9087C14.7578 12.4351 14.6315 12.5278 14.6162 12.6779L14.5127 13.6773L13.7319 13.0327C13.6772 12.9883 13.6113 12.9614 13.5464 12.9614C13.4705 12.9614 13.3952 12.9881 13.3379 13.0452L12.5044 13.8766C12.4992 13.8823 12.4953 13.8879 12.49 13.8933C12.4468 13.9438 12.4228 14.0049 12.4193 14.0683C12.4183 14.0862 12.4195 14.1067 12.422 14.1286C12.4295 14.1784 12.4493 14.2274 12.4829 14.2694L13.1428 15.0829L12.092 15.1906C11.941 15.2052 11.84 15.3322 11.84 15.4834V16.6608C11.84 16.8121 11.9434 16.9382 12.0937 16.9536L13.1387 17.0593L12.4878 17.8523C12.392 17.9696 12.3994 18.1399 12.5062 18.2468L13.3383 19.0793C13.4439 19.1849 13.6162 19.1921 13.7323 19.0997L14.5167 18.4584L14.616 19.4723C14.6314 19.6224 14.7577 19.7948 14.9088 19.7948H16.0494C16.0683 19.7948 16.086 19.7528 16.1042 19.7494C16.2274 19.7226 16.3249 19.5883 16.3417 19.4598L16.4725 18.4153L17.2628 19.0531C17.3175 19.0974 17.3827 19.1164 17.4483 19.1164C17.5238 19.1164 17.598 19.0863 17.6552 19.0289L18.4592 18.2216C18.5118 18.1691 18.5352 18.1014 18.54 18.0317C18.5444 17.9626 18.5488 17.8917 18.5034 17.8329L17.9199 17.0569L18.9383 16.9537C19.0893 16.9383 19.1999 16.8121 19.1999 16.6609V15.4836C19.1999 15.3322 19.0744 15.2053 18.9238 15.1907L18.9239 15.1906ZM15.4975 17.1553C14.8802 17.1553 14.3774 16.6537 14.3774 16.0353C14.3774 15.4169 14.88 14.9152 15.4975 14.9152C16.1164 14.9152 16.6174 15.4169 16.6174 16.0353C16.6174 16.6537 16.1165 17.1553 15.4975 17.1553Z" fill="#2D2B29"/>
</g>
<defs>
<clipPath id="clip0_2134_29">
<rect width="16" height="16" fill="white" transform="translate(4 4.11499)"/>
</clipPath>
</defs>
</svg>
