<svg width="24" height="25" viewBox="0 0 24 25" fill="none" xmlns="http://www.w3.org/2000/svg">
<path d="M19.2958 7.61363L16.4107 4.72863C16.0984 4.41638 15.6888 4.26001 15.2793 4.26001C14.8723 4.26001 14.4652 4.41426 14.1534 4.72338L5.20466 13.5878C4.95404 13.8359 4.79254 14.1599 4.74516 14.5094L4.25016 18.1575C4.18029 18.6721 4.36454 19.1885 4.74441 19.5428C5.04341 19.8218 5.43454 19.9726 5.83566 19.9726C5.94379 19.9726 9.56091 19.2338 9.56091 19.2338C9.86616 19.1704 10.1464 19.0194 10.3668 18.7989L19.2953 9.87676C19.5957 9.57676 19.7644 9.16976 19.7644 8.74526C19.7644 8.32088 19.5959 7.91376 19.2958 7.61363ZM9.23591 17.6671L7.49191 18.029L6.06466 16.6849L6.33054 14.7245L15.2793 5.86013L18.164 8.74513L9.23566 17.667L9.23591 17.6671Z" fill="#2D2B29"/>
<path d="M16.378 8.76979L9.26604 15.6942L8.26154 14.6624L15.3735 7.73804L16.378 8.76979Z" fill="#2D2B29"/>
</svg>
