<svg width="24" height="25" viewBox="0 0 24 25" fill="none" xmlns="http://www.w3.org/2000/svg">
<path d="M15.5252 17.7125V12.2228C16.0052 12.2697 16.6749 12.1942 17.3301 11.8691C17.9067 11.5827 18.2408 11.0867 18.2408 10.5085C18.2408 9.81695 17.7659 9.22995 17.5938 9.04058L14.7757 5.22458C14.7522 5.19258 14.7264 5.16233 14.6984 5.13433C13.5917 4.0277 11.2106 4.1052 10.7389 4.13258C10.2673 4.1052 7.88581 4.02783 6.77893 5.13433C6.10243 5.81095 5.75968 7.07608 5.75968 8.89508C5.75968 9.21508 5.77168 9.4572 5.77781 9.55908C5.77531 9.61545 5.77243 9.71308 5.77243 9.8417C5.77243 10.7052 5.90331 12.2848 6.77931 13.1605C7.33256 13.7137 8.32393 14.035 9.82481 14.1426C10.2144 14.1705 10.5654 14.1797 10.8854 14.1803V17.7127C10.8854 18.6773 11.4821 20.1126 13.1254 20.1126C14.8862 20.1126 15.5254 18.6773 15.5254 17.7127H15.5252V17.7125ZM12.4852 17.7125V13.3605C12.4852 13.1397 12.4007 12.9287 12.2397 12.7776C12.0789 12.6263 11.8659 12.5483 11.6454 12.5618C10.1878 12.652 8.33931 12.4593 7.90843 12.0287C7.58168 11.702 7.37131 10.8433 7.37131 9.84095C7.37131 9.6997 7.37631 9.6102 7.37693 9.60083C7.37906 9.56583 7.37906 9.52945 7.37643 9.49395C7.37631 9.49158 7.35931 9.2502 7.35931 8.8947C7.35931 7.3622 7.64381 6.5317 7.91018 6.26545C8.37581 5.79983 9.81256 5.6732 10.6832 5.73183C10.7197 5.73445 10.7571 5.73445 10.7934 5.73183C11.6437 5.67458 13.0321 5.7937 13.5313 6.23183L16.3352 10.0276C16.3562 10.056 16.3789 10.0828 16.4033 10.1082C16.4726 10.1796 16.5777 10.3323 16.6227 10.437C15.8059 10.8415 15.2341 10.5177 15.1844 10.488C14.9413 10.3101 14.6252 10.293 14.3564 10.4295C14.0879 10.566 13.9251 10.8511 13.9251 11.1525V17.7026C13.9251 18.0722 13.7692 18.5123 13.1251 18.5123C12.5822 18.5125 12.4851 18.0066 12.4852 17.7125Z" fill="#2D2B29"/>
</svg>
