<svg width="24" height="25" viewBox="0 0 24 25" fill="none" xmlns="http://www.w3.org/2000/svg">
<path d="M12 5.55652C8.38288 5.55652 5.44 8.49939 5.44 12.1165C5.44 15.7336 8.38288 18.6765 12 18.6765C15.6171 18.6765 18.56 15.7336 18.56 12.1165C18.56 8.49939 15.6173 5.55652 12 5.55652ZM7.04 12.1165C7.04 11.0355 7.38675 10.0363 7.9735 9.22127L14.8948 16.1426C14.08 16.7295 13.0809 17.0764 12 17.0764C9.26038 17.0764 7.04 14.8548 7.04 12.1165ZM16.0263 15.0114L9.105 8.09014C9.91975 7.50327 10.9191 7.15652 12 7.15652C14.7398 7.15652 16.96 9.37664 16.96 12.1165C16.96 13.1971 16.6131 14.1965 16.0263 15.0114Z" fill="#2D2B29"/>
</svg>
