<svg width="24" height="25" viewBox="0 0 24 25" fill="none" xmlns="http://www.w3.org/2000/svg">
<path d="M12.0787 19.2554C8.92532 19.2554 8.39545 17.344 6.21132 9.31453C6.10395 9.36816 5.95232 9.45828 5.7497 9.60953C5.51257 9.78653 5.19695 9.81816 4.92932 9.69203L4.59157 9.53253C4.37082 9.42841 4.20982 9.22916 4.15432 8.99141C4.09882 8.75366 4.15445 8.50378 4.30607 8.31253C4.72682 7.78116 6.92282 5.13066 8.84595 5.13066C9.79445 5.13066 10.9761 5.70166 11.2196 8.42216C11.6704 13.4693 12.7436 13.6958 12.7541 13.6958C12.8461 13.6958 12.9746 13.6115 13.0312 13.5602C13.5322 12.9658 15.2346 9.75078 14.8019 8.80666C14.7837 8.76678 14.7351 8.66091 14.3722 8.66091C14.1654 8.66091 13.9117 8.69816 13.6183 8.77191C13.3078 8.84953 12.9813 8.73541 12.7876 8.48128C12.5934 8.22703 12.5698 7.88191 12.7266 7.60341C12.7871 7.49616 14.2342 4.97778 16.7164 4.97778C17.5132 4.97778 18.3137 5.24066 19.0952 5.75928C20.3679 6.60341 20.0653 9.21591 18.1957 13.5239C17.6176 14.8559 16.7493 16.2044 15.8134 17.2235C14.6037 18.5412 13.3406 19.2437 12.1601 19.255L12.0788 19.2553L12.0787 19.2554ZM7.7547 8.89241C10.0066 17.166 10.3627 17.6555 12.0787 17.6555L12.1448 17.6553C13.7037 17.6404 15.7374 15.1685 16.7278 12.8872C18.1822 9.53566 18.4642 7.45291 18.1983 7.08441C17.6878 6.74803 17.1892 6.57778 16.7162 6.57778C16.1177 6.57778 15.5938 6.84841 15.1767 7.18066C15.8481 7.40303 16.1532 7.88691 16.2858 8.20791C17.1203 10.2263 14.5314 14.3242 14.1682 14.6863C14.0258 14.8287 13.5007 15.2959 12.7546 15.2959C12.7543 15.2959 12.7541 15.2959 12.7541 15.2959C11.0534 15.2963 10.0304 13.0943 9.6257 8.56503C9.58732 8.13491 9.4172 6.73091 8.84582 6.73091C8.38107 6.73091 7.68807 7.19028 7.02107 7.77653C7.45195 7.99641 7.7057 8.44453 7.7547 8.89241Z" fill="#2D2B29"/>
</svg>
