<svg width="24" height="25" viewBox="0 0 24 25" fill="none" xmlns="http://www.w3.org/2000/svg">
<path d="M16.9661 19.9551C16.8199 19.9551 16.6734 19.9151 16.5433 19.8343L12.0234 17.0207L7.65082 19.8282C7.37007 20.0084 7.00657 19.9956 6.73932 19.7954C6.47194 19.5954 6.35707 19.2503 6.45107 18.9298L7.90632 13.9662L4.39669 10.4324C4.16907 10.2032 4.10169 9.85943 4.22582 9.56118C4.34994 9.26293 4.64119 9.06856 4.96444 9.06856H9.38369L11.2849 4.75256C11.4131 4.46181 11.7003 4.26868 12.0191 4.27506C12.3367 4.27568 12.6241 4.46456 12.7507 4.75581L14.6278 9.07043H19.0444C19.3671 9.07043 19.6581 9.26418 19.7826 9.56181C19.9069 9.85943 19.8404 10.2026 19.6139 10.4322L16.1396 13.9548L17.7283 18.9108C17.8307 19.2303 17.7229 19.5798 17.4582 19.7861C17.3143 19.8982 17.1406 19.9552 16.9662 19.9552L16.9661 19.9551ZM6.88619 10.6684L9.37457 13.1741C9.58007 13.3809 9.65669 13.6832 9.57457 13.9628L8.58919 17.3244L11.5851 15.4009C11.8449 15.2342 12.1777 15.2318 12.4401 15.3951L15.5394 17.3243L14.4679 13.9819C14.3772 13.6984 14.4513 13.3878 14.6602 13.1758L17.1316 10.6702H14.1034C13.7851 10.6702 13.4968 10.4814 13.3698 10.1894L12.0126 7.06956L10.6376 10.1908C10.5096 10.4811 10.2223 10.6682 9.90544 10.6682H6.88644L6.88619 10.6684Z" fill="#2D2B29"/>
</svg>
