<svg width="24" height="25" viewBox="0 0 24 25" fill="none" xmlns="http://www.w3.org/2000/svg">
<path d="M15.6678 10.8952C15.6599 10.8942 15.6524 10.8924 15.6445 10.8918C15.4389 10.8694 15.2291 10.8566 15.0164 10.8566C13.5939 10.8567 12.316 11.3656 11.4179 12.2868C11.4111 12.2936 11.4049 12.3026 11.3984 12.3101C11.9424 12.5084 12.4514 12.7757 12.9141 13.1072C13.4649 12.7083 14.1764 12.5262 15.0175 12.5262C17.0753 12.5262 18.3716 13.8674 18.3763 15.9411C18.3764 15.9422 18.3765 15.9453 18.3765 15.9521H15.0884C15.2719 16.4343 15.4021 16.9121 15.4751 17.5521H18.3766C19.2563 17.5521 19.9698 16.7873 19.976 15.9088C19.9698 14.5253 19.4879 13.1987 18.6161 12.3042C17.8575 11.5257 16.8271 11.0306 15.668 10.8951L15.6678 10.8952Z" fill="#2D2B29"/>
<path d="M8.98512 13.4929C7.56225 13.4929 6.28412 14.0004 5.38575 14.922C4.50787 15.8227 4.02425 17.1023 4.02425 18.4962C4.02425 19.3797 4.74075 20.1122 5.62425 20.1122H12.3442C13.2277 20.1122 13.9442 19.3797 13.9442 18.4962C13.9442 17.1024 13.461 15.823 12.5837 14.9224C11.6859 14.0007 10.4079 13.4929 8.98512 13.4929ZM5.62437 18.5122C5.62437 16.4322 6.92337 15.1249 8.98512 15.1249C11.0467 15.1249 12.3444 16.4322 12.3444 18.5122H5.62437Z" fill="#2D2B29"/>
<path d="M8.82424 8.11651C9.57562 8.11651 10.1844 8.75976 10.1844 9.55226C10.1844 10.3453 9.57562 10.988 8.82424 10.988C8.07324 10.988 7.46437 10.3453 7.46437 9.55226C7.46437 8.75976 8.07312 8.11651 8.82424 8.11651ZM8.82424 6.67651C7.28037 6.67651 6.02437 7.96664 6.02437 9.55226C6.02437 11.1379 7.28037 12.428 8.82424 12.428C10.3682 12.428 11.6244 11.1379 11.6244 9.55239C11.6244 7.96689 10.3682 6.67664 8.82424 6.67664V6.67651Z" fill="#2D2B29"/>
<path d="M14.9042 5.55658C15.6556 5.55658 16.2644 6.19983 16.2644 6.9922C16.2644 7.78495 15.6556 8.42795 14.9042 8.42795C14.1532 8.42795 13.5444 7.78508 13.5444 6.9922C13.5444 6.1997 14.1531 5.55645 14.9042 5.55645V5.55658ZM14.9042 4.11658C13.3604 4.11658 12.1044 5.4067 12.1044 6.99233C12.1044 8.57795 13.3604 9.86808 14.9042 9.86808C16.4482 9.86808 17.7044 8.57795 17.7044 6.99233C17.7044 5.4067 16.4482 4.11658 14.9042 4.11658Z" fill="#2D2B29"/>
</svg>
