<svg width="24" height="25" viewBox="0 0 24 25" fill="none" xmlns="http://www.w3.org/2000/svg">
<path d="M11.6009 10.4221C11.6559 10.4388 11.7142 10.4557 11.7713 10.4726C10.8916 9.92271 9.39532 9.18233 7.95769 9.38558C7.35757 9.47058 6.81719 9.71596 6.35719 10.101C5.78444 9.12546 5.31019 8.19633 5.12519 7.42958C5.05882 7.15408 5.16369 6.81508 5.41244 6.49921C5.74832 6.07271 6.24144 5.75121 6.72144 5.75121V5.71633C7.14469 5.71633 7.55557 5.91171 7.85307 6.20271C8.14607 6.48946 8.32132 6.90408 8.32132 7.30733V8.11633H9.92132V7.30733C9.92132 6.47008 9.57519 5.64908 8.97182 5.05883C8.37344 4.47333 7.56507 4.11633 6.72144 4.11633C6.72107 4.11633 6.72094 4.11633 6.72032 4.11633C5.78082 4.11633 4.79782 4.65821 4.15507 5.47421C3.60082 6.17771 3.38757 7.03196 3.56957 7.78721C3.92482 9.25996 5.01882 11.0083 6.07694 12.6907C7.00194 14.1615 7.95857 15.6868 8.28132 16.8286C8.38032 17.1793 8.14169 17.584 8.03444 17.7256C7.69882 18.1695 7.14132 18.5163 6.67857 18.5163C5.81157 18.5163 5.10569 17.7991 5.10532 16.9598L5.10494 16.1423L3.50494 16.1343L3.50519 16.9647C3.50582 18.6858 4.92907 20.1162 6.67782 20.1162C6.67794 20.1162 6.67832 20.1162 6.67882 20.1162C7.63932 20.1162 8.67207 19.5365 9.31032 18.6932C9.84219 17.9903 10.0284 17.1491 9.82107 16.4151C9.43557 15.0516 8.46207 13.4951 7.43132 11.8562C7.35719 11.7383 7.28282 11.6157 7.20882 11.4975C7.47907 11.2022 7.79807 11.0243 8.17857 10.9701C8.80682 10.88 9.53319 11.1083 10.1631 11.4086C10.3218 11.1566 10.5288 10.8937 10.8013 10.6212C11.0104 10.412 11.3181 10.3351 11.6008 10.4218L11.6009 10.4221Z" fill="#2D2B29"/>
<path d="M20.0082 11.9565C19.7821 10.8473 19.0944 7.47192 16.8761 7.47192C16.1656 7.47192 15.4577 7.82967 14.712 8.56567C14.4872 8.78755 14.4141 9.12092 14.5252 9.41655C14.6526 9.75542 14.7891 10.1508 14.898 10.496C14.5601 10.4153 14.1729 10.3102 13.8169 10.2048C13.7597 10.188 13.7014 10.171 13.6465 10.1543C13.3637 10.0675 13.0561 10.1444 12.847 10.3537C12.5745 10.6262 12.3675 10.889 12.2087 11.141C11.672 11.9937 11.7155 12.7159 11.8859 13.2143C12.7557 15.7595 18.4594 16.6097 19.5939 16.7542C19.6276 16.7584 19.6614 16.7605 19.695 16.7605C19.894 16.7605 20.0875 16.6862 20.236 16.55C20.4095 16.3907 20.504 16.1632 20.4944 15.9278C20.4909 15.8468 20.4081 13.919 20.0082 11.9565ZM13.3999 12.6969C13.3309 12.4953 13.6946 11.8027 13.7056 11.8057C14.3237 11.9798 15.2286 12.1759 15.7055 12.1759C15.7062 12.1759 15.7071 12.1759 15.708 12.1759C15.8159 12.1759 16.1336 12.2074 16.3967 11.9825C16.7835 11.6527 16.8985 11.2792 16.2139 9.3578C16.4725 9.16242 16.7035 9.06392 16.8762 9.06392C17.7699 9.06392 18.583 12.036 18.834 15.014C16.5665 14.6058 13.7511 13.7253 13.3997 12.697L13.3999 12.6969Z" fill="#2D2B29"/>
<path d="M12.9281 12.1016C12.9116 12.0967 12.8938 12.092 12.8777 12.0875C12.8194 12.1631 12.7687 12.2368 12.7217 12.3091C12.7286 12.3146 12.738 12.3217 12.7447 12.3271L12.9281 12.1016Z" fill="#2D2B29"/>
</svg>
