<svg width="24" height="25" viewBox="0 0 24 25" fill="none" xmlns="http://www.w3.org/2000/svg">
<path d="M16.504 9.74619C16.2251 9.61344 15.895 9.65294 15.6556 9.84769L13.1851 11.8549L11.9097 11.4138C11.5954 11.3048 11.2472 11.4018 11.0342 11.6571L8.13825 15.1238C7.93925 15.3622 7.896 15.6942 8.0275 15.9757C8.159 16.2572 8.44162 16.4367 8.75212 16.4367H16.1601C16.6019 16.4367 16.9601 16.0784 16.9601 15.6367V10.4687C16.9601 10.1601 16.7828 9.87906 16.504 9.74644V9.74619ZM15.3601 14.8364H10.4629L11.9082 13.1062L13.0826 13.5124C13.344 13.6027 13.6339 13.5518 13.8488 13.3772L15.3601 12.1492V14.8364Z" fill="#2D2B29"/>
<path d="M8.80001 11.1724C9.68401 11.1724 10.4001 10.4558 10.4001 9.57241C10.4001 8.68904 9.68426 7.97241 8.80001 7.97241C7.91788 7.97241 7.20013 8.68904 7.20013 9.57241C7.20013 10.4558 7.91788 11.1724 8.80001 11.1724Z" fill="#2D2B29"/>
<path d="M18.4001 4.91638H5.60012C4.7165 4.91638 4.00012 5.63263 4.00012 6.51638V17.7164C4.00012 18.6001 4.7165 19.3164 5.60012 19.3164H18.4001C19.2839 19.3164 20.0001 18.6 20.0001 17.7164V6.51638C20.0001 5.63276 19.2837 4.91638 18.4001 4.91638ZM18.4001 17.7164H5.60012V6.51638H18.4001V17.7164Z" fill="#2D2B29"/>
</svg>
