<svg width="24" height="25" viewBox="0 0 24 25" fill="none" xmlns="http://www.w3.org/2000/svg">
<path d="M8.8905 9.67163H10.4905V15.7516H8.8905V9.67163Z" fill="#2D2B29"/>
<path d="M6.6185 10.9517H8.2185V15.7517H6.6185V10.9517Z" fill="#2D2B29"/>
<path d="M4.26651 12.5518H5.86651V15.7518H4.26651V12.5518Z" fill="#2D2B29"/>
<path d="M12.854 10.0816C14.5787 10.0816 15.4042 10.9988 15.7705 12.6317C16.0408 12.3852 16.5824 12.0579 17.0703 12.0579C17.2119 12.0579 17.3492 12.0856 17.4737 12.1509C18.2499 12.5573 18.1268 13.3712 18.1268 14.1098H12.8542V10.0817L12.854 10.0816ZM12.854 8.48157C11.9705 8.48157 11.254 9.19807 11.254 10.0816V14.1098C11.254 14.9933 11.9705 15.7098 12.854 15.7098H18.1268C19.0103 15.7098 19.7268 14.9933 19.7268 14.1098C19.7268 14.0316 19.7285 13.9523 19.7302 13.8731C19.745 13.1192 19.776 11.5503 18.2159 10.7336C17.8669 10.5508 17.4814 10.4581 17.0703 10.4581C16.9275 10.4581 16.7862 10.4696 16.6468 10.4908C15.6798 8.87319 14.1285 8.48157 12.854 8.48157Z" fill="#2D2B29"/>
</svg>
