<svg width="24" height="25" viewBox="0 0 24 25" fill="none" xmlns="http://www.w3.org/2000/svg">
<path d="M18.4043 6.83499H18.1609L18.159 4.93212C18.1585 4.49074 17.8005 4.11499 17.359 4.11499H14.3244C13.8825 4.11499 13.4443 4.47312 13.4443 4.91499V6.83499H10.5609L10.559 4.93212C10.5585 4.49074 10.2005 4.11499 9.75902 4.11499H6.72427C6.2824 4.11499 5.92427 4.47312 5.92427 4.91499V6.83499H5.60427C4.72077 6.83499 4.00427 7.51524 4.00427 8.39887V18.471C4.00427 18.8956 4.17302 19.325 4.47352 19.6249C4.77352 19.9249 5.18027 20.115 5.60427 20.115C5.6049 20.115 5.6054 20.115 5.6059 20.115L18.4059 20.0804C19.2891 20.0792 20.0043 19.3414 20.0043 18.4584V8.39887C20.0043 7.51537 19.2878 6.83499 18.4043 6.83499ZM8.96427 5.71499V8.91499H7.52427V5.71499H8.96427ZM16.5599 5.71499L16.5633 8.91499H15.0443V5.71499H16.5599ZM5.60427 18.4712V10.835H18.4043V18.4584L5.60427 18.4712Z" fill="#2D2B29"/>
</svg>
