<svg width="24" height="25" viewBox="0 0 24 25" fill="none" xmlns="http://www.w3.org/2000/svg">
<path d="M18.0049 13.8268C18.2524 13.8268 18.5244 13.8653 18.6844 13.9376V9.47682C18.5246 9.54882 18.2126 9.58694 17.9643 9.58694C17.7164 9.58694 17.5644 9.54857 17.2444 9.47632V13.3273L14.4201 10.7039C14.0194 10.9856 13.5639 11.1388 13.0639 11.1388C12.7508 11.1388 12.4569 11.0784 12.1749 10.9644L10.3977 15.2859L7.27082 7.99207C6.88807 8.23782 6.44494 8.37132 5.97894 8.37132C5.94369 8.37132 5.90969 8.36782 5.87482 8.36619L9.18569 16.1409C9.54919 15.9276 9.96344 15.8113 10.3964 15.8113C10.8303 15.8113 11.2461 15.9284 11.6113 16.1436L13.4342 11.7203L16.4086 14.4563C16.8519 14.0511 17.4003 13.8269 18.0048 13.8269L18.0049 13.8268Z" fill="#2D2B29"/>
<path d="M7.18107 7.30558C6.55857 7.93258 5.54619 7.93758 4.91819 7.31533C4.29019 6.6937 4.28619 5.68083 4.90782 5.05295C5.53069 4.42508 6.54269 4.42058 7.17107 5.04208C7.79869 5.66433 7.80257 6.6777 7.18107 7.30558Z" fill="#2D2B29"/>
<path d="M11.5011 19.1777C10.8786 19.8047 9.86619 19.8097 9.23819 19.1874C8.61019 18.5657 8.60619 17.5529 9.22781 16.925C9.85069 16.2972 10.8627 16.2927 11.4911 16.914C12.1187 17.5365 12.1227 18.5502 11.5011 19.1777Z" fill="#2D2B29"/>
<path d="M14.2211 10.0577C13.5986 10.6847 12.5863 10.6897 11.9582 10.0675C11.3302 9.44585 11.3262 8.43285 11.9478 7.8051C12.5706 7.17723 13.5826 7.17285 14.2109 7.79423C14.8387 8.4166 14.8424 9.4301 14.2211 10.0577Z" fill="#2D2B29"/>
<path d="M19.1011 17.1777C18.4784 17.8047 17.4662 17.8097 16.8382 17.1874C16.2102 16.5657 16.2061 15.5529 16.8278 14.925C17.4507 14.2972 18.4627 14.2927 19.0911 14.914C19.7186 15.5365 19.7224 16.5502 19.1011 17.1777Z" fill="#2D2B29"/>
<path d="M19.037 8.61759C18.4145 9.24459 17.4021 9.24959 16.774 8.62734C16.1461 8.00571 16.142 6.99284 16.7637 6.36496C17.3865 5.73709 18.3985 5.73259 19.0268 6.35409C19.6545 6.97646 19.6586 7.98996 19.037 8.61759Z" fill="#2D2B29"/>
</svg>
