<svg width="24" height="25" viewBox="0 0 24 25" fill="none" xmlns="http://www.w3.org/2000/svg">
<path d="M16.64 4.11499H13.6V5.71499H15.84V18.515H13.6V20.115H16.64C17.0817 20.115 17.44 19.7569 17.44 19.315V4.91499C17.44 4.47312 17.0817 4.11499 16.64 4.11499Z" fill="#2D2B29"/>
<path d="M8.16 5.71499H10.4V4.11499H7.36C6.91825 4.11499 6.56 4.47312 6.56 4.91499V19.315C6.56 19.7569 6.91825 20.115 7.36 20.115H10.4V18.515H8.16V5.71499Z" fill="#2D2B29"/>
<path d="M14.7201 12.915V11.315H12.8V9.39502H11.2V11.315H9.28V12.915H11.2V14.835H12.8V12.915H14.7201Z" fill="#2D2B29"/>
</svg>
