<svg width="24" height="25" viewBox="0 0 24 25" fill="none" xmlns="http://www.w3.org/2000/svg">
<path d="M19.7789 18.7877L15.105 14.1139C15.9039 13.0847 16.3813 11.7941 16.3813 10.3935C16.3813 7.04098 13.6538 4.31348 10.3013 4.31348C6.94875 4.31348 4.22125 7.04098 4.22125 10.3935C4.22125 13.746 6.94875 16.4735 10.3013 16.4735C11.6776 16.4735 12.9478 16.0134 13.968 15.2394L18.6478 19.9192L19.7789 18.7877ZM5.82125 10.3935C5.82125 7.91885 7.82688 5.91348 10.3013 5.91348C12.776 5.91348 14.7813 7.91873 14.7813 10.3935C14.7813 12.8671 12.7756 14.8735 10.3013 14.8735C7.82688 14.8735 5.82125 12.8671 5.82125 10.3935Z" fill="#2D2B29"/>
</svg>
