<svg width="24" height="25" viewBox="0 0 24 25" fill="none" xmlns="http://www.w3.org/2000/svg">
<path d="M6.74442 20.1165C6.05292 20.1165 5.40267 19.8452 4.91379 19.3526C4.42654 18.8617 4.15829 18.2097 4.15829 17.5167C4.15829 16.0831 5.31867 14.9166 6.74504 14.9165H17.2549C17.5173 14.9165 17.7642 14.8131 17.9503 14.6256C18.1379 14.4365 18.2415 14.1846 18.2415 13.9168C18.2415 13.3653 17.7988 12.9167 17.2545 12.9166H6.74542C6.74542 12.9166 6.74492 12.9166 6.74467 12.9166C6.05317 12.9166 5.40292 12.6453 4.91404 12.1527C4.42679 11.6618 4.15854 11.0098 4.15854 10.3168C4.15854 8.8832 5.31892 7.7167 6.74529 7.71658H17.2552C17.5175 7.71658 17.7644 7.6132 17.9505 7.42583C18.1384 7.23658 18.2418 6.98483 18.2418 6.71683C18.2418 6.16545 17.7989 5.7167 17.2548 5.71658H12.0302V4.11658H17.2548C18.6813 4.11708 19.8417 5.28345 19.8417 6.71683C19.8417 7.40983 19.5733 8.06183 19.0862 8.55283C18.5974 9.04533 17.9472 9.31645 17.2553 9.31645C17.2553 9.31645 17.2548 9.31645 17.2545 9.31645H6.74554C6.20142 9.31658 5.75867 9.7652 5.75867 10.3167C5.75867 10.5846 5.86204 10.8363 6.04992 11.0255C6.23604 11.2132 6.48292 11.3163 6.74517 11.3163H17.255C18.6815 11.3165 19.8419 12.4831 19.8419 13.9167C19.8419 14.6097 19.5735 15.2615 19.0864 15.7526C18.5977 16.2452 17.9474 16.5165 17.2555 16.5165C17.2555 16.5165 17.255 16.5165 17.2548 16.5165H6.74567C6.20154 16.5166 5.75879 16.9652 5.75879 17.5167C5.75879 17.7846 5.86217 18.0363 6.05004 18.2255C6.23617 18.4131 6.48304 18.5163 6.74529 18.5163H12.0304V20.1163H6.74579C6.74542 20.1163 6.74517 20.1163 6.74479 20.1163L6.74442 20.1165Z" fill="#2D2B29"/>
</svg>
