<svg width="24" height="25" viewBox="0 0 24 25" fill="none" xmlns="http://www.w3.org/2000/svg">
<path d="M10.8947 11.0073C10.282 11.6193 10.2822 12.6124 10.8946 13.2251C11.5066 13.8369 12.4994 13.8369 13.1121 13.2252C13.7244 12.6128 13.7244 11.6193 13.1121 11.0069C12.5001 10.3951 11.5067 10.3948 10.8949 11.0072L10.8947 11.0073Z" fill="#2D2B29"/>
<path d="M19.0585 10.2032L17.1861 9.96893L18.4415 8.48443C18.6946 8.27431 18.6261 7.69418 18.3987 7.43406L16.6995 5.72956C16.415 5.44506 15.9492 5.40831 15.6377 5.66293L14.2457 6.98968L13.9471 5.09256C13.906 4.69293 13.6282 4.43506 13.2263 4.43506H10.8745C10.4803 4.43506 10.138 4.70156 10.0875 5.09256L9.80846 6.98156L8.36309 5.67893C8.05121 5.42556 7.58709 5.45518 7.30271 5.73943L5.61859 7.42131C5.33984 7.69993 5.29621 8.15618 5.53696 8.46806L6.90771 9.96906L4.95696 10.2039C4.55634 10.2441 4.32446 10.5846 4.32446 10.9869V13.3391C4.32446 13.7417 4.55634 14.0201 4.95684 14.0603L6.89559 14.3111L5.52884 15.7529C5.27384 16.0644 5.32184 16.5323 5.60634 16.8171L7.31109 18.4886C7.59584 18.7732 8.06634 18.8098 8.37784 18.5552L9.85409 17.3372L10.09 19.1309C10.1312 19.5307 10.4728 19.7949 10.8746 19.7949H13.2266C13.6283 19.7949 13.9065 19.5306 13.948 19.1309L14.1988 17.3343L15.6368 18.6022C15.9483 18.8554 16.4132 18.8051 16.6972 18.5209L18.4036 16.8068C18.6875 16.5227 18.7021 16.0747 18.4487 15.7628L17.1775 14.3131L19.0581 14.0611C19.4587 14.0208 19.6843 13.7417 19.6843 13.3391V10.9869C19.6843 10.5843 19.459 10.2432 19.0583 10.2029L19.0585 10.2032ZM18.2755 12.7433L15.965 12.9473C15.6647 12.9774 15.4086 13.0206 15.3061 13.3043C15.2712 13.4011 15.1416 13.7926 15.141 13.8642C15.14 14.0424 15.2272 14.2459 15.3437 14.3892L16.8821 16.1074L15.9951 16.9943L14.1205 15.4558C13.854 15.1734 13.725 15.2154 13.4572 15.3316C13.4531 15.3334 13.4477 15.3226 13.4437 15.3243C13.4216 15.3342 13.2753 15.3838 13.2753 15.3838C13.2732 15.3816 13.2557 15.3938 13.2496 15.3964C12.9813 15.5051 12.8523 15.7941 12.8221 16.0832L12.6321 18.3869L11.3771 18.3876L11.1726 16.0854C11.1422 15.7912 11.0256 15.5202 10.7492 15.4147C10.6783 15.3878 10.6041 15.3393 10.5086 15.3012C10.1406 15.1542 10.0418 15.3281 9.80834 15.5187L8.01184 16.9948L7.12496 16.1078L8.62334 14.2988C8.79934 14.1229 8.78834 13.6462 8.74721 13.5057C8.72771 13.4383 8.69684 13.3763 8.67359 13.3097C8.57359 13.0211 8.35509 12.9772 8.05134 12.9464L5.73096 12.7431L5.73121 11.4892L8.07046 11.2858C8.35871 11.2568 8.60771 11.0708 8.71734 10.8024C8.73571 10.7574 8.75559 10.7132 8.77621 10.6688C8.89809 10.4041 8.86196 10.0921 8.68371 9.86106L7.12496 8.12431L8.01184 7.23743L9.81171 8.81556C10.0105 8.97681 10.431 8.99106 10.7041 8.87268C10.7226 8.86468 10.8478 8.80118 10.8651 8.79131C11.0783 8.66943 11.1441 8.41318 11.1758 8.16956L11.3781 5.84581L12.6313 5.84481L12.8347 8.11806C12.8657 8.41468 12.982 8.68756 13.2617 8.79131C13.3066 8.80806 13.3513 8.83431 13.3955 8.85306C13.6633 8.96631 13.9733 8.96006 14.1987 8.77606L15.9948 7.23743L16.8818 8.12431L15.4235 9.89156C15.3031 10.0391 15.1525 10.3861 15.2037 10.6081C15.2198 10.6779 15.2636 10.7363 15.2903 10.8024C15.4 11.0712 15.7138 11.2723 16.0025 11.3013L18.276 11.4892L18.2757 12.7433H18.2755Z" fill="#2D2B29"/>
</svg>
