<svg width="24" height="25" viewBox="0 0 24 25" fill="none" xmlns="http://www.w3.org/2000/svg">
<path d="M12.0002 15.6364C13.0606 15.6364 13.9202 16.496 13.9202 17.5564C13.9202 18.6167 13.0606 19.4764 12.0002 19.4764C10.9399 19.4764 10.0802 18.6167 10.0802 17.5564C10.0802 16.496 10.9399 15.6364 12.0002 15.6364Z" fill="#2D2B29"/>
<path d="M12.0002 10.1963C13.0606 10.1963 13.9202 11.0559 13.9202 12.1163C13.9202 13.1767 13.0606 14.0363 12.0002 14.0363C10.9399 14.0363 10.0802 13.1767 10.0802 12.1163C10.0802 11.0559 10.9399 10.1963 12.0002 10.1963Z" fill="#2D2B29"/>
<path d="M12.0002 4.75635C13.0606 4.75635 13.9202 5.61597 13.9202 6.67635C13.9202 7.73672 13.0606 8.59635 12.0002 8.59635C10.9399 8.59635 10.0802 7.73672 10.0802 6.67635C10.0802 5.61597 10.9399 4.75635 12.0002 4.75635Z" fill="#2D2B29"/>
</svg>
