<svg width="24" height="25" viewBox="0 0 24 25" fill="none" xmlns="http://www.w3.org/2000/svg">
<path d="M19.4519 11.1961L18.4314 8.40197C18.3164 8.08622 18.016 7.87634 17.68 7.87634H14.88V9.47634H17.1205L17.6419 10.9041C17.5014 10.904 17.352 10.9038 17.1913 10.9038C16.5034 10.9038 15.746 10.9061 15.1025 10.908C14.6293 10.9093 14.2179 10.9107 13.942 10.9107C13.9041 10.9107 13.8659 10.9128 13.8281 10.9165H10.1718C10.134 10.9128 10.0958 10.9107 10.0579 10.9107C9.78201 10.9107 9.37063 10.9095 8.89738 10.908C8.25401 10.9058 7.49638 10.9038 6.80863 10.9038C6.64913 10.9038 6.50076 10.904 6.36138 10.9041L6.99876 9.47634H9.11988V7.87634H6.47988C6.16413 7.87634 5.87801 8.06197 5.74951 8.35022L4.41563 11.3381C4.22151 11.581 4.09501 11.9236 4.09676 12.3913C4.10238 13.8085 5.32951 16.3563 7.75463 16.3563C7.75638 16.3563 7.77238 16.3563 7.77401 16.3563C10.0524 16.3563 11.2173 13.9425 11.2613 12.5163H12.7388C12.7828 13.9425 13.9475 16.3563 16.226 16.3563C16.2276 16.3563 16.2436 16.3563 16.2454 16.3563C18.6705 16.3563 19.8976 13.8085 19.9035 12.3913C19.9056 11.8238 19.7199 11.4355 19.452 11.196L19.4519 11.1961ZM9.30213 13.7333C9.25526 13.8178 9.20476 13.8957 9.14563 13.9778C8.77338 14.499 8.32001 14.7563 7.84001 14.7563H7.79763C7.68313 14.7563 7.57426 14.7485 7.47038 14.7262C6.92451 14.6102 6.52701 14.2335 6.28701 13.9061C5.90201 13.381 5.74201 12.8285 5.71026 12.505C6.03138 12.5027 6.41588 12.5026 6.82476 12.5026C6.96138 12.5026 7.10088 12.5031 7.24138 12.5033C7.80326 12.504 8.38551 12.5061 8.89663 12.5075C9.18076 12.5082 9.44076 12.5091 9.66476 12.5097C9.64651 12.801 9.55726 13.2736 9.30201 13.7332L9.30213 13.7333ZM17.729 13.9093C17.4656 14.2687 16.9991 14.6855 16.3656 14.7527C16.312 14.7583 16.2578 14.7563 16.2021 14.7563H16.16C15.68 14.7563 15.2279 14.499 14.8555 13.978C14.8344 13.9485 14.817 13.9215 14.7973 13.8917C14.4645 13.3842 14.341 12.834 14.3206 12.5085C14.5446 12.5078 14.8149 12.5078 15.099 12.5071C15.7216 12.5052 16.4528 12.5036 17.1229 12.5032C17.5234 12.5032 17.9021 12.5042 18.2228 12.5061L18.2319 12.5282L18.2406 12.5498L18.2409 12.5505L18.2859 12.5342L18.2935 12.5315C18.2568 12.8577 18.1049 13.3966 17.729 13.9093Z" fill="#2D2B29"/>
</svg>
