<svg width="24" height="25" viewBox="0 0 24 25" fill="none" xmlns="http://www.w3.org/2000/svg">
<path d="M17.564 7.94099L13.7907 4.49424C13.4958 4.22449 13.1507 4.11499 12.7511 4.11499H7.76433C6.88071 4.11499 6.00433 4.75124 6.00433 5.63499V18.4349C6.00433 19.3186 6.88071 20.1149 7.76433 20.1149H16.5643C17.4481 20.1149 18.0045 19.3186 18.0045 18.4349V9.12174C18.0043 8.67249 17.8956 8.24399 17.564 7.94099ZM16.4043 9.12187V9.23512H12.5642V5.71512H12.751L16.4043 9.12187ZM7.60421 18.5151V5.71512H10.9642V9.95512C10.9642 10.3969 11.4825 10.8351 11.9242 10.8351H16.4042V18.5151H7.60421Z" fill="#2D2B29"/>
</svg>
