<svg width="24" height="25" viewBox="0 0 24 25" fill="none" xmlns="http://www.w3.org/2000/svg">
<g clip-path="url(#clip0_2136_253)">
<path d="M18.4001 5.71655H5.60012C4.71662 5.71655 4.00012 6.35305 4.00012 7.23655V18.4366C4.00012 18.8612 4.16887 19.3084 4.46937 19.6086C4.76937 19.9082 5.17612 20.1166 5.60012 20.1166C5.60075 20.1166 5.60125 20.1166 5.60187 20.1166H18.3687C19.2516 20.1156 20.0001 19.3057 20.0001 18.4227V7.23655C20.0001 6.35305 19.2836 5.71655 18.4001 5.71655ZM18.4001 18.4227L5.60012 18.4366V7.31655H18.4001V18.4227Z" fill="#2D2B29"/>
<path d="M10.0591 17.2824C10.1686 17.3344 10.2872 17.3599 10.4037 17.3599C10.5844 17.3599 10.7641 17.2988 10.9095 17.1804L15.3899 13.5348C15.5765 13.3829 15.6851 13.1549 15.6851 12.9143C15.6851 12.6736 15.5767 12.4456 15.3902 12.2938L10.9102 8.64813C10.6706 8.45326 10.3382 8.41338 10.0592 8.54601C9.7805 8.67876 9.60025 8.95988 9.60025 9.26863V16.5599C9.60025 16.8686 9.78062 17.1498 10.0592 17.2825L10.0591 17.2824ZM11.2001 10.951L13.6126 12.9144L11.2001 14.8776V10.951Z" fill="#2D2B29"/>
</g>
<defs>
<clipPath id="clip0_2136_253">
<rect width="16" height="16" fill="white" transform="translate(4.00012 4.11658)"/>
</clipPath>
</defs>
</svg>
