<svg width="24" height="25" viewBox="0 0 24 25" fill="none" xmlns="http://www.w3.org/2000/svg">
<path d="M18.2698 6.0577C17.0856 4.86733 13.9046 4.68958 12.1139 4.68958L11.9676 4.69008C7.92039 4.71883 6.35464 5.43745 5.75389 6.0352C4.62714 7.15583 4.00452 8.64783 4.00027 10.2366C3.99602 11.8253 4.61114 13.3207 5.73202 14.4471C6.34789 15.0665 6.83314 15.4047 7.82789 15.587C7.82964 16.3258 7.82464 17.5837 7.81689 18.7378C7.81477 19.0453 7.98914 19.3268 8.26539 19.4618C8.37689 19.5166 8.49727 19.5432 8.61689 19.5432C8.79314 19.5432 8.96827 19.4849 9.11227 19.3714L13.73 15.7317C15.2191 15.5408 17.5708 15.1416 18.2468 14.4688C19.3735 13.3485 19.9961 11.8563 20.0003 10.2672C20.0044 8.67858 19.3899 7.18358 18.2699 6.05745L18.2698 6.0577ZM17.1281 13.3251C16.7969 13.5689 15.0218 13.9632 13.3128 14.1716C13.1671 14.1892 13.0294 14.2466 12.9141 14.3373L9.42652 17.0864C9.43639 14.8454 9.41877 14.7831 9.38664 14.6693C9.29702 14.3526 9.02252 14.1229 8.69464 14.091C7.51989 13.9761 7.32877 13.7837 6.86652 13.3189C6.04702 12.4952 5.59727 11.402 5.60027 10.2407C5.60327 9.07933 6.05852 7.9887 6.88239 7.16933C7.27614 6.77758 8.84739 6.3122 11.979 6.28995L12.1138 6.28945C14.5451 6.28945 16.6101 6.65808 17.1353 7.18608C17.9541 8.00895 18.4034 9.10195 18.4004 10.2633C18.3974 11.4201 17.9456 12.5068 17.1283 13.325L17.1281 13.3251Z" fill="#2D2B29"/>
</svg>
