<svg width="24" height="25" viewBox="0 0 24 25" fill="none" xmlns="http://www.w3.org/2000/svg">
<path d="M15.2562 13.4318L12.7837 12.9958L13.6853 7.93654C13.5218 7.97354 13.3553 7.99541 13.1888 7.99541C12.7972 7.99541 12.4253 7.89304 12.1005 7.71191L11.2077 12.718L9.11835 12.3495C9.15335 12.8554 9.01785 13.3545 8.72485 13.7773C8.6976 13.8163 8.66772 13.8527 8.63847 13.8894L10.9431 14.2958L10.674 16.2208C10.817 16.1924 10.9613 16.1742 11.1063 16.1742C11.5212 16.1742 11.9133 16.2897 12.251 16.4908L12.519 14.5733L14.912 14.9954C14.8268 14.4298 14.9618 13.8783 15.2565 13.4314L15.2562 13.4318Z" fill="#2D2B29"/>
<path d="M12.6986 18.1901C12.8559 19.0596 12.2787 19.8921 11.4092 20.0488C10.5397 20.2072 9.70761 19.63 9.55023 18.7602C9.39311 17.8903 9.97023 17.0586 10.8392 16.9008C11.709 16.7435 12.5412 17.321 12.6986 18.1901Z" fill="#2D2B29"/>
<path d="M14.8451 5.47004C15.0023 6.33967 14.4252 7.17217 13.5557 7.32892C12.6862 7.48717 11.8541 6.91004 11.6967 6.04029C11.5396 5.17042 12.1167 4.33867 12.9857 4.18092C13.8553 4.02342 14.688 4.60092 14.8451 5.47004Z" fill="#2D2B29"/>
<path d="M18.6827 14.398C18.8397 15.2676 18.2627 16.1001 17.3932 16.2569C16.5237 16.4152 15.6916 15.838 15.5342 14.9682C15.3771 14.0984 15.9542 13.2666 16.8232 13.1089C17.6931 12.9515 18.5253 13.529 18.6827 14.398Z" fill="#2D2B29"/>
<path d="M8.4746 12.3183C8.63172 13.1878 8.0546 14.0203 7.1851 14.1771C6.3156 14.3354 5.48347 13.7582 5.3261 12.8884C5.16897 12.0186 5.7461 11.1868 6.6151 11.0291C7.48497 10.8716 8.31722 11.4491 8.4746 12.3183Z" fill="#2D2B29"/>
</svg>
