<svg width="24" height="25" viewBox="0 0 24 25" fill="none" xmlns="http://www.w3.org/2000/svg">
<path d="M17.5967 8.59148H12.107C12.1538 8.11148 12.0783 7.44173 11.7532 6.78648C11.4668 6.20986 10.9708 5.87573 10.3926 5.87573C9.70108 5.87573 9.1142 6.35061 8.9247 6.52273L5.1087 9.34098C5.0767 9.36448 5.04645 9.39011 5.01845 9.41823C3.9117 10.525 3.98933 12.9061 4.01658 13.3777C3.98933 13.8494 3.91183 16.2309 5.01833 17.3377C5.69495 18.0142 6.96008 18.357 8.77908 18.357C9.09895 18.357 9.3412 18.345 9.44295 18.3389C9.49945 18.3414 9.59708 18.3442 9.72558 18.3442C10.5891 18.3442 12.1687 18.2134 13.0443 17.3374C13.5976 16.7841 13.9188 15.7927 14.0265 14.2919C14.0543 13.9022 14.0636 13.5512 14.0642 13.2312H17.5966C18.5612 13.2312 19.9965 12.6346 19.9965 10.9912C19.9965 9.23048 18.5612 8.59123 17.5966 8.59123V8.59148H17.5967ZM17.5967 11.6315H13.2446C13.0238 11.6315 12.8128 11.716 12.6617 11.877C12.5105 12.0377 12.4325 12.2507 12.446 12.4712C12.5361 13.9289 12.3435 15.7774 11.9128 16.2082C11.5861 16.535 10.7275 16.7454 9.72508 16.7454C9.58383 16.7454 9.49445 16.7404 9.48495 16.7397C9.44995 16.7376 9.41358 16.7376 9.37808 16.7402C9.3757 16.7404 9.13433 16.7574 8.77883 16.7574C7.24633 16.7574 6.41583 16.4729 6.14958 16.2065C5.68395 15.7409 5.5572 14.3041 5.61595 13.4335C5.61858 13.397 5.61858 13.3596 5.61595 13.3232C5.5587 12.473 5.67783 11.0846 6.11595 10.5854L9.91183 7.78136C9.9402 7.76036 9.9672 7.73773 9.99245 7.71323C10.0638 7.64411 10.2166 7.53898 10.3212 7.49398C10.7257 8.31073 10.402 8.88261 10.3722 8.93211C10.1943 9.17536 10.1772 9.49136 10.3137 9.76011C10.4502 10.0287 10.7353 10.1916 11.0367 10.1916H17.587C17.9566 10.1916 18.3967 10.3475 18.3967 10.9916C18.3966 11.5345 17.8907 11.6316 17.5967 11.6315Z" fill="#2D2B29"/>
</svg>
