<svg width="24" height="25" viewBox="0 0 24 25" fill="none" xmlns="http://www.w3.org/2000/svg">
<path d="M11.2003 6.8363H12.8003V17.3963H11.2003V6.8363Z" fill="#2D2B29"/>
<path d="M8.76026 17.0077L4.43463 12.682C4.28451 12.5318 4.20026 12.3285 4.20026 12.1162C4.20026 11.904 4.28438 11.7006 4.43463 11.5505L8.76026 7.2251L9.89163 8.35647L6.13163 12.1163L9.89163 15.8765L8.76026 17.0078V17.0077Z" fill="#2D2B29"/>
<path d="M15.2403 17.0077L14.1089 15.8764L17.8689 12.1162L14.1089 8.35635L15.2403 7.22498L19.5659 11.5506C19.716 11.7007 19.8003 11.9041 19.8003 12.1164C19.8003 12.3286 19.7161 12.5321 19.5659 12.6821L15.2403 17.0077Z" fill="#2D2B29"/>
</svg>
