<svg width="24" height="25" viewBox="0 0 24 25" fill="none" xmlns="http://www.w3.org/2000/svg">
<path d="M17.1528 8.89062C16.034 7.10362 14.1064 6.0365 11.9964 6.0365H11.9959C10.8566 6.03662 9.74251 6.3575 8.77351 6.96437C7.39701 7.82612 6.43863 9.17237 6.07501 10.755C5.71138 12.3376 5.98576 13.9671 6.84813 15.3436C7.96651 17.1299 9.89426 18.1966 12.0043 18.1966C13.1433 18.1966 14.2578 17.8759 15.2265 17.269C16.6029 16.4074 17.5613 15.0611 17.9249 13.4782C18.2885 11.8957 18.0144 10.2664 17.1528 8.89062ZM14.3773 15.913C13.6384 16.3757 12.8163 16.5965 12.0043 16.5965C10.5123 16.5965 9.05401 15.8517 8.20388 14.4941C6.89013 12.3971 7.52551 9.63337 9.62263 8.32025C10.3619 7.8575 11.1839 7.6365 11.996 7.6365C13.4879 7.6365 14.9463 8.38125 15.7966 9.73987C17.109 11.8352 16.4745 14.5999 14.3773 15.913Z" fill="#2D2B29"/>
<path d="M12.64 8.59644H11.04V12.3877C11.04 12.7431 11.2702 13.0558 11.6112 13.1556L13.9935 13.8529L14.4456 12.3171L12.64 11.7881V8.59644Z" fill="#2D2B29"/>
</svg>
