<svg width="24" height="25" viewBox="0 0 24 25" fill="none" xmlns="http://www.w3.org/2000/svg">
<path d="M14.1601 4.11499H11.1201V5.71499H13.3601V18.515H11.1201V20.115H14.1601C14.6018 20.115 14.9601 19.7569 14.9601 19.315V4.91499C14.9601 4.47312 14.6018 4.11499 14.1601 4.11499Z" fill="#2D2B29"/>
<path d="M5.68008 5.71499H7.92008V4.11499H4.88008C4.43833 4.11499 4.08008 4.47312 4.08008 4.91499V19.315C4.08008 19.7569 4.43833 20.115 4.88008 20.115H7.92008V18.515H5.68008V5.71499Z" fill="#2D2B29"/>
<path d="M19.1201 4.11499H16.0801V5.71499H18.3201V18.515H16.08V20.115H19.12C19.5617 20.115 19.92 19.7569 19.92 19.315V4.91499C19.9201 4.47312 19.5618 4.11499 19.1201 4.11499Z" fill="#2D2B29"/>
<path d="M12.2402 12.915V11.315H10.32V9.39502H8.72005V11.315H6.80005V12.915H8.72005V14.835H10.32V12.915H12.2402Z" fill="#2D2B29"/>
</svg>
