<svg width="24" height="25" viewBox="0 0 24 25" fill="none" xmlns="http://www.w3.org/2000/svg">
<path d="M14.3808 14.886C15.2689 14.1037 15.6543 13.0373 15.3849 12.0842C14.9181 10.4329 13.5536 9.8034 12.457 9.29753C11.3445 8.78428 10.6515 8.42378 10.4326 7.5159C10.3648 7.23465 10.4458 6.8889 10.6993 6.56728C11.0405 6.13378 11.5244 5.85878 12.0044 5.85878V5.8749H12.0559C12.4861 5.8749 12.8646 6.02178 13.1674 6.31815C13.4655 6.60965 13.6044 6.98003 13.6044 7.39028V8.1149H15.2045V7.39028C15.2045 6.54615 14.8946 5.76953 14.2863 5.17428C13.6828 4.5839 12.9071 4.2749 12.0561 4.2749C12.0559 4.2749 12.0555 4.2749 12.0548 4.2749C11.1073 4.2749 10.1159 4.77015 9.46752 5.59315C8.90877 6.30265 8.69364 7.1379 8.87727 7.8989C9.02314 8.50415 9.29289 8.96915 9.62802 9.3479C8.73989 10.1305 8.35452 11.1948 8.62389 12.1478C9.09077 13.7992 10.4553 14.4274 11.5518 14.9334C12.6641 15.4465 13.3573 15.8068 13.576 16.7147C13.6439 16.9959 13.5628 17.3417 13.3091 17.6632C12.968 18.0965 12.4841 18.3713 12.0043 18.3713V18.355H11.9529C11.5225 18.355 11.1439 18.208 10.8414 17.9118C10.5431 17.6203 10.4043 17.2499 10.4043 16.8397V16.115H8.80427V16.8397C8.80427 17.6838 9.11402 18.4608 9.72239 19.0558C10.326 19.646 11.1016 19.955 11.9526 19.955C11.9526 19.955 11.9529 19.955 11.954 19.955C12.9015 19.955 13.8928 19.4598 14.541 18.6369C15.0998 17.9273 15.3148 17.0919 15.1313 16.3312C14.9855 15.7255 14.7158 15.265 14.3805 14.886H14.3808ZM10.1636 11.7108C10.0644 11.3593 10.2881 10.8778 10.7206 10.5125L10.9326 10.3335C11.2214 10.4895 11.5124 10.6239 11.7868 10.7505C12.8978 11.2632 13.5915 11.6228 13.845 12.5195C13.9444 12.871 13.7205 13.3525 13.2884 13.7175L13.0763 13.8969C12.7874 13.7408 12.4964 13.6065 12.2221 13.4799C11.1111 12.9673 10.4174 12.6077 10.1636 11.7108Z" fill="#2D2B29"/>
</svg>
