<svg width="24" height="25" viewBox="0 0 24 25" fill="none" xmlns="http://www.w3.org/2000/svg">
<path d="M12.0055 19.955C12.0053 19.955 12.0048 19.955 12.0044 19.955C11.7796 19.9548 11.5651 19.8598 11.4139 19.6934C11.1851 19.4419 5.795 13.495 4.543 10.0299C4.01638 8.5729 4.1705 7.08777 4.9655 5.9554C5.71525 4.88752 6.96225 4.27502 8.38725 4.27502C9.84963 4.27502 11.0854 4.82777 11.9743 5.85677C12.5621 5.06652 13.5529 4.27502 15.3439 4.27502C16.8658 4.27502 18.2085 4.9444 19.028 6.11177C19.8186 7.2384 19.9898 8.6664 19.4973 10.0299C18.2451 13.4961 12.8259 19.4435 12.5956 19.6951C12.4441 19.8608 12.2299 19.955 12.0055 19.955ZM8.38725 5.87502C7.47763 5.87502 6.72775 6.23002 6.27513 6.87477C5.78388 7.57465 5.70088 8.5264 6.04763 9.48627C6.96425 12.0233 10.5745 16.3099 12.0071 17.9505C13.4464 16.3106 17.0768 12.0213 17.9925 9.48615C18.3099 8.60715 18.2126 7.73527 17.7184 7.03115C17.2025 6.2964 16.337 5.87502 15.3439 5.87502C13.6329 5.87502 13.1563 6.8674 12.7731 7.66465L12.7406 7.73202C12.6074 8.00865 12.327 8.1844 12.0201 8.1844C11.7131 8.1844 11.4331 8.00852 11.2996 7.73202C10.7049 6.4999 9.72513 5.87502 8.38725 5.87502Z" fill="#2D2B29"/>
</svg>
