<svg width="24" height="25" viewBox="0 0 24 25" fill="none" xmlns="http://www.w3.org/2000/svg">
<path d="M9.45461 16.9261C8.99923 17.3815 8.27386 17.398 7.79898 16.9656C7.76261 16.9297 7.63223 16.7991 7.54923 16.7159L7.47561 16.642C7.45798 16.6244 7.19036 16.3562 7.15936 16.3241C6.72073 15.8496 6.73548 15.1195 7.19298 14.662L9.28598 12.569L8.15473 11.4376L6.06161 13.5309C4.99423 14.5981 4.96036 16.3022 5.98298 17.4085C6.01973 17.4486 6.34111 17.7704 6.34636 17.7755L6.41623 17.8456C6.51911 17.949 6.68798 18.1176 6.70636 18.1347C7.24573 18.6331 7.92611 18.881 8.60573 18.881C9.32236 18.881 10.0382 18.6052 10.5859 18.0575L12.6791 15.9647L11.5479 14.8334L9.45461 16.9261Z" fill="#2D2B29"/>
<path d="M13.929 9.05762L15.0605 10.189L10.0825 15.167L8.95111 14.0356L13.929 9.05762Z" fill="#2D2B29"/>
<path d="M18.0283 6.82259C18.0096 6.80197 18.0001 6.79159 17.6946 6.48759L17.6623 6.45547C17.3315 6.12459 17.3042 6.09997 17.2991 6.09547C16.1913 5.07134 14.4871 5.10509 13.4198 6.17259L11.3267 8.26559L12.4581 9.39697L14.5513 7.30397C15.0055 6.84947 15.7287 6.83184 16.2098 7.26734C16.2616 7.31772 16.514 7.56997 16.531 7.58709L16.5658 7.62184C16.6416 7.69734 16.8228 7.87759 16.8486 7.90397C17.2875 8.37834 17.2726 9.10822 16.8152 9.56572L14.7223 11.6588L15.8537 12.7901L17.9467 10.6967C19.0141 9.62934 19.048 7.92534 18.0283 6.82284V6.82259Z" fill="#2D2B29"/>
</svg>
