<svg width="24" height="25" viewBox="0 0 24 25" fill="none" xmlns="http://www.w3.org/2000/svg">
<path d="M12.2402 8.59644C10.4757 8.59644 9.04016 10.0319 9.04016 11.7966C9.04016 13.5608 10.4757 14.9964 12.2402 14.9964C14.0047 14.9964 15.4402 13.5609 15.4402 11.7966C15.4402 10.0319 14.0047 8.59644 12.2402 8.59644ZM12.2402 13.3964C11.3562 13.3964 10.6402 12.6799 10.6402 11.7966C10.6402 10.9127 11.3562 10.1964 12.2402 10.1964C13.1228 10.1964 13.8402 10.9127 13.8402 11.7966C13.8402 12.6799 13.1228 13.3964 12.2402 13.3964Z" fill="#2D2B29"/>
<path d="M19.5108 11.1439C19.4725 11.094 18.56 9.90725 17.2915 8.71188C15.3808 6.91163 13.7024 6.03638 12.1602 6.03638C10.6379 6.03638 8.91965 6.90013 6.90703 8.67688C5.5634 9.86325 4.57453 11.0401 4.53315 11.0896C4.0359 11.6839 4.0359 12.549 4.53315 13.1433C4.57465 13.1929 5.5634 14.3696 6.90703 15.5559C8.91965 17.3326 10.6379 18.1964 12.1602 18.1964C13.7024 18.1964 15.3808 17.3211 17.2915 15.5209C18.56 14.3256 19.4725 13.1388 19.5108 13.0889C19.9502 12.515 19.9502 11.7179 19.5108 11.1439ZM12.1602 16.5964C9.50915 16.5964 5.76015 12.1164 5.76015 12.1164C5.76015 12.1164 9.50915 7.63638 12.1602 7.63638C14.811 7.63638 18.2402 12.1164 18.2402 12.1164C18.2402 12.1164 14.811 16.5964 12.1602 16.5964Z" fill="#2D2B29"/>
</svg>
