<svg width="24" height="25" viewBox="0 0 24 25" fill="none" xmlns="http://www.w3.org/2000/svg">
<path d="M17.6 4.11499H6.40001C5.95826 4.11499 5.60001 4.47312 5.60001 4.91499V19.315C5.60001 19.7569 5.95826 20.115 6.40001 20.115H17.6C18.0418 20.115 18.4 19.7569 18.4 19.315V4.91499C18.4 4.47312 18.0418 4.11499 17.6 4.11499ZM16.8 18.515H7.20001V5.71499H16.8V18.515Z" fill="#2D2B29"/>
<path d="M11.3445 14.116C11.8708 14.116 12.3663 13.9848 12.8026 13.7559L15.335 16.3297L16.4754 15.2074L13.9869 12.6782C14.3085 12.184 14.4974 11.596 14.4974 10.964C14.4974 9.22541 13.0833 7.81104 11.3448 7.81104C9.60651 7.81104 8.19226 9.22541 8.19226 10.964C8.19214 12.7019 9.60639 14.116 11.3445 14.116ZM11.3445 9.41104C12.2008 9.41104 12.8973 10.1077 12.8973 10.964C12.8973 11.8199 12.2008 12.516 11.3445 12.516C10.4885 12.516 9.79201 11.8197 9.79201 10.964C9.79201 10.1078 10.4885 9.41104 11.3445 9.41104Z" fill="#2D2B29"/>
</svg>
