<svg width="24" height="25" viewBox="0 0 24 25" fill="none" xmlns="http://www.w3.org/2000/svg">
<path d="M19.6997 12.533L11.8009 4.3591C11.6381 4.1906 11.4099 4.10172 11.1757 4.1166L5.16944 4.49235C4.76544 4.5176 4.44406 4.84047 4.42069 5.24472L4.08569 11.043C4.07244 11.2721 4.15831 11.4957 4.32119 11.6573L12.6238 19.8846C12.7766 20.036 12.9801 20.1163 13.1872 20.1163C13.2894 20.1163 13.3924 20.0968 13.4906 20.0565C13.7877 19.9346 13.9832 19.6467 13.9869 19.3256L14.0474 14.0955L19.1567 13.8887C19.4716 13.876 19.7498 13.6795 19.8669 13.3868C19.9843 13.0941 19.9188 12.76 19.6999 12.5332L19.6997 12.533ZM13.2238 12.527C12.7986 12.5441 12.4611 12.8915 12.4563 13.3171L12.4088 17.4185L5.70381 10.7745L5.97706 6.0446L10.9069 5.73635L17.3092 12.3616L13.2238 12.527Z" fill="#2D2B29"/>
<path d="M9.28433 7.79541C8.40083 7.79504 7.68433 8.51179 7.68433 9.39541C7.68433 10.2787 8.40045 10.9949 9.2842 10.9954C10.1681 10.9955 10.8843 10.2789 10.8843 9.39504C10.8843 8.51204 10.1681 7.79491 9.28433 7.79541Z" fill="#2D2B29"/>
</svg>
