<svg width="24" height="25" viewBox="0 0 24 25" fill="none" xmlns="http://www.w3.org/2000/svg">
<path d="M7.47725 9.51331H12.9172V11.1133H7.47725V9.51331Z" fill="#2D2B29"/>
<path d="M19.883 18.8675L15.0222 14.0068C15.8085 12.9821 16.2772 11.7018 16.2772 10.3134C16.2772 6.9609 13.5497 4.2334 10.1972 4.2334C6.84475 4.2334 4.11725 6.9609 4.11725 10.3134C4.11725 13.6659 6.84475 16.3934 10.1972 16.3934C11.5857 16.3934 12.866 15.9246 13.8906 15.1384L18.7514 19.9991L19.8829 18.8676L19.883 18.8675ZM5.71725 10.3133C5.71725 7.83865 7.72287 5.83327 10.1972 5.83327C12.6716 5.83327 14.6772 7.83877 14.6772 10.3133C14.6772 12.7869 12.6716 14.7933 10.1972 14.7933C7.72287 14.7933 5.71725 12.7869 5.71725 10.3133Z" fill="#2D2B29"/>
</svg>
