<svg width="24" height="25" viewBox="0 0 24 25" fill="none" xmlns="http://www.w3.org/2000/svg">
<path d="M15.12 16.3965C14.7345 15.033 13.761 13.4851 12.7303 11.8462C11.7407 10.273 10.7177 8.64624 10.4239 7.42837C10.3574 7.15287 10.462 6.77874 10.7108 6.46274C11.0468 6.03637 11.5724 5.71499 12.0192 5.71499C12.0194 5.71499 12.0194 5.71499 12.0197 5.71499C12.4432 5.71499 12.846 5.91037 13.1437 6.20162C13.4369 6.48824 13.604 6.90299 13.604 7.30624V8.11499H15.204V7.30624C15.204 6.46899 14.8659 5.64787 14.2625 5.05774C13.664 4.47224 12.8638 4.11499 12.0198 4.11499C12.0195 4.11499 12.0193 4.11499 12.0188 4.11499C11.0793 4.11499 10.0967 4.65674 9.45378 5.47274C8.89953 6.17649 8.68628 7.03062 8.86828 7.78599C9.22353 9.25862 10.3175 11.007 11.3757 12.6894C12.3007 14.1604 13.2573 15.6855 13.5802 16.8274C13.6792 17.1781 13.4539 17.5477 13.3469 17.6894C13.0109 18.133 12.4839 18.4441 12.0039 18.4441V18.4446C11.044 18.4446 10.4178 17.7626 10.4174 16.9235L10.4104 16.1235L8.80703 16.1242L8.80578 16.9592C8.80641 18.6802 10.2279 20.1151 11.9767 20.1151C11.9769 20.1151 11.9774 20.1151 11.9774 20.1151C12.938 20.1151 13.9708 19.5351 14.609 18.6919C15.141 17.9891 15.3273 17.1304 15.12 16.3965Z" fill="#2D2B29"/>
</svg>
