<svg width="24" height="25" viewBox="0 0 24 25" fill="none" xmlns="http://www.w3.org/2000/svg">
<path d="M12.0234 4.17554C8.92451 4.17554 6.40338 6.68479 6.40338 9.76904C6.40338 11.2268 6.86526 12.517 7.75013 13.4998C8.04501 13.8277 8.64338 14.8787 9.12338 15.5808V17.9007C9.12338 18.8794 10.0251 20.0024 11.3554 20.0544C11.3623 20.0547 12.4824 20.0539 12.4885 20.0537C13.6401 20.0093 14.5635 19.0209 14.5635 17.8999V15.6089C15.0435 14.9963 15.8086 13.842 16.1168 13.4998C17.0665 12.4444 17.5966 11.1195 17.5966 9.76929C17.5966 6.68516 15.1001 4.17579 12.0235 4.17579L12.0234 4.17554ZM12.4994 18.4157C12.4231 18.4162 11.2834 18.4157 11.2834 18.4157C10.9429 18.3969 10.7234 18.1029 10.7234 17.9008V17.2157H12.9634V17.9002C12.9634 18.1598 12.7926 18.3988 12.4994 18.4157ZM14.9413 12.4293C14.4601 12.9637 13.251 14.7128 13.1161 14.9105C13.0255 15.0433 12.9633 15.2002 12.9633 15.361V15.6157H10.7234V15.361C10.7234 15.218 10.6908 15.0777 10.6181 14.9547C10.5026 14.7589 9.47713 13.0243 8.94213 12.4297C8.32613 11.7452 8.00201 10.8252 8.00201 9.76904C8.00201 7.56716 9.80601 5.77554 12.0226 5.77554C14.2171 5.77554 16.003 7.56704 16.003 9.76904C16.0031 10.7234 15.6264 11.6683 14.9413 12.4293Z" fill="#2D2B29"/>
</svg>
