<svg width="24" height="25" viewBox="0 0 24 25" fill="none" xmlns="http://www.w3.org/2000/svg">
<path d="M15.9409 16.0457L14.8228 14.9012L17.6755 12.1144L14.8228 9.32761L15.9409 8.18311L19.3794 11.5421C19.5335 11.6925 19.6204 11.8989 19.6204 12.1142C19.6204 12.3297 19.5336 12.536 19.3794 12.6865L15.9409 16.0455V16.0457Z" fill="#2D2B29"/>
<path d="M8.06777 16.0458L4.6294 12.6869C4.47527 12.5364 4.3884 12.3298 4.3884 12.1146C4.3884 11.8993 4.47527 11.6928 4.6294 11.5423L8.06802 8.18335L9.18615 9.32785L6.3334 12.1147L9.18615 14.9015L8.0679 16.0461L8.06777 16.0458Z" fill="#2D2B29"/>
<path d="M12.6553 6.36292L14.2008 6.77754L11.226 17.867L9.68053 17.4525L12.6553 6.36292Z" fill="#2D2B29"/>
</svg>
