<svg width="24" height="25" viewBox="0 0 24 25" fill="none" xmlns="http://www.w3.org/2000/svg">
<path d="M17.12 8.65983V4.88483C17.12 4.44745 16.7618 4.11658 16.3201 4.11658H7.68C7.23825 4.11658 6.88 4.44758 6.88 4.88483V8.65983C6.88 8.9857 6.88325 9.92833 10.6323 12.0888C6.88313 14.2492 6.88 15.192 6.88 15.5177V19.2927C6.88 19.7301 7.23825 20.1165 7.68 20.1165H16.3201C16.7618 20.1165 17.12 19.7301 17.12 19.2927V15.5177C17.12 15.1937 17.117 14.2563 13.3648 12.0887C17.117 9.9212 17.12 8.9837 17.12 8.65983ZM15.52 15.6112V17.4235H8.48V15.609C8.74988 15.1766 10.3095 14.0861 11.9995 13.1413C13.688 14.0878 15.2473 15.1786 15.52 15.611V15.6112ZM15.52 8.56633C15.2475 8.99833 13.6884 10.089 11.9994 11.036C10.3095 10.0911 8.74975 9.00095 8.48 8.56833V6.80945H15.52V8.56633Z" fill="#2D2B29"/>
</svg>
