<svg width="24" height="25" viewBox="0 0 24 25" fill="none" xmlns="http://www.w3.org/2000/svg">
<path d="M19.204 6.91489H15.5183L14.8121 5.03052C14.6953 4.71789 14.3968 4.51489 14.063 4.51489H9.9189C9.58302 4.51489 9.2829 4.72052 9.16752 5.03589L8.47877 6.91489H4.80427C4.36252 6.91489 4.00427 7.28152 4.00427 7.72339V18.9149C4.00427 19.127 4.08852 19.3309 4.2389 19.4809C4.38902 19.6306 4.60477 19.715 4.81677 19.715C4.81715 19.715 4.81752 19.715 4.81752 19.715L19.205 19.699C19.6464 19.6988 20.0044 19.3405 20.0044 18.899V7.72352C20.0044 7.28164 19.6463 6.91502 19.2044 6.91502L19.204 6.91489ZM18.4041 18.1149L5.60415 18.1138V8.51489H9.0379C9.37377 8.51489 9.6739 8.30927 9.78927 7.99389L10.478 6.11489H13.5078L14.214 7.99927C14.3308 8.31189 14.6295 8.51502 14.9633 8.51502H18.4039L18.4041 18.1149Z" fill="#2D2B29"/>
<path d="M12.0041 9.79492C10.0631 9.79492 8.48413 11.3739 8.48413 13.3149C8.48413 15.2559 10.0631 16.8349 12.0041 16.8349C13.945 16.8349 15.5241 15.2559 15.5241 13.3149C15.5241 11.3739 13.945 9.79492 12.0041 9.79492ZM12.0041 15.2349C10.9458 15.2349 10.0841 14.374 10.0841 13.3149C10.0841 12.2558 10.9458 11.3949 12.0041 11.3949C13.0625 11.3949 13.924 12.2557 13.924 13.3149C13.924 14.3742 13.0625 15.2349 12.0041 15.2349Z" fill="#2D2B29"/>
</svg>
