<svg width="24" height="25" viewBox="0 0 24 25" fill="none" xmlns="http://www.w3.org/2000/svg">
<path d="M7.55341 10.198C8.61453 10.198 9.47516 11.0546 9.47516 12.1164C9.47516 13.1776 8.61453 14.0345 7.55341 14.0345C6.49516 14.0345 5.63516 13.1778 5.63516 12.1164C5.63516 11.0545 6.49516 10.198 7.55341 10.198ZM7.55341 8.59802C5.61341 8.59802 4.03516 10.1764 4.03516 12.1164C4.03516 14.0563 5.61341 15.6345 7.55341 15.6345C9.49528 15.6345 11.0752 14.0563 11.0752 12.1164C11.0752 10.1764 9.49528 8.59802 7.55341 8.59802Z" fill="#2D2B29"/>
<path d="M16.4468 10.198C17.5043 10.198 18.3649 11.0546 18.3649 12.1164C18.3649 13.1776 17.5043 14.0345 16.4468 14.0345C15.3849 14.0345 14.5249 13.1778 14.5249 12.1164C14.5249 11.0545 15.3849 10.198 16.4468 10.198ZM16.4468 8.59802C14.5047 8.59802 12.9249 10.1764 12.9249 12.1164C12.9249 14.0563 14.5048 15.6345 16.4468 15.6345C18.3867 15.6345 19.9649 14.0563 19.9649 12.1164C19.9649 10.1764 18.3867 8.59802 16.4468 8.59802Z" fill="#2D2B29"/>
</svg>
