<svg width="24" height="25" viewBox="0 0 24 25" fill="none" xmlns="http://www.w3.org/2000/svg">
<path d="M6.79005 17.5966H10.7872V15.9966H6.79005C6.79005 15.9966 6.79168 15.9966 6.7918 15.9966H6.79005C6.79005 13.9166 8.08905 12.5698 10.1508 12.5698C11.5043 12.5698 12.5049 13.1771 13.1701 14.082C13.2048 14.1291 13.1862 11.879 13.1701 11.8648C12.3807 11.1441 11.3022 10.9268 10.1609 10.9268C8.73805 10.9268 7.45505 11.4318 6.55668 12.3533C5.6818 13.2508 5.1963 14.5726 5.19305 15.9603C5.19643 16.8409 5.9088 17.5965 6.79018 17.5965L6.79005 17.5966Z" fill="#2D2B29"/>
<path d="M16.4071 15.6767V13.2767H14.4872V15.6767H12.0873V17.5966H14.4872V19.9965H16.4071V17.5967H18.8072V15.6767H16.4071Z" fill="#2D2B29"/>
<path d="M10.1471 5.67669C10.9427 5.67669 11.5872 6.35769 11.5872 7.19669C11.5872 8.03644 10.9427 8.71669 10.1471 8.71669C9.35168 8.71669 8.70718 8.03644 8.70718 7.19669C8.70718 6.35769 9.35168 5.67669 10.1471 5.67669ZM10.1471 4.23669C8.55906 4.23669 7.26718 5.56457 7.26718 7.19669C7.26718 8.82882 8.55906 10.1567 10.1471 10.1567C11.7352 10.1567 13.0272 8.82882 13.0272 7.19669C13.0272 5.56457 11.7352 4.23669 10.1471 4.23669Z" fill="#2D2B29"/>
</svg>
