<svg width="24" height="25" viewBox="0 0 24 25" fill="none" xmlns="http://www.w3.org/2000/svg">
<path d="M19.7763 13.1397L12.5273 4.40546C12.3753 4.22221 12.1497 4.11633 11.9117 4.11633C11.91 4.11633 11.9083 4.11633 11.9069 4.11633C11.6673 4.11771 11.4408 4.22658 11.2902 4.41296L4.21766 13.1472C4.02353 13.387 3.98453 13.7496 4.11741 14.0278C4.25016 14.3063 4.53103 14.5163 4.83953 14.5163H7.20016V19.3128C7.20016 19.7546 7.59803 20.1127 8.03978 20.1128L15.76 20.1163C15.972 20.1163 16.1355 20.0322 16.2857 19.8821C16.4358 19.7322 16.48 19.5285 16.48 19.3163V14.5163H19.1607C19.4708 14.5163 19.753 14.3043 19.8847 14.0236C20.0167 13.743 19.9743 13.3785 19.7763 13.1397ZM15.76 12.9163C15.3182 12.9163 14.88 13.2088 14.88 13.6507V18.516L8.80003 18.513V13.6507C8.80003 13.2088 8.52191 12.9163 8.08003 12.9163H6.51666L11.9195 6.24383L17.4569 12.9163H15.76Z" fill="#2D2B29"/>
</svg>
