<svg width="24" height="25" viewBox="0 0 24 25" fill="none" xmlns="http://www.w3.org/2000/svg">
<path d="M10.2477 20.1166H8.97543C7.75593 20.1166 5.98455 19.1738 5.98455 17.6968C5.98455 15.861 5.68518 13.8975 5.35543 13.5618L4.6703 13.0832C4.45605 12.9335 4.32855 12.6887 4.32855 12.4273V11.7726C4.32855 11.5113 4.45605 11.2665 4.6703 11.1167L5.3558 10.6378C5.68543 10.3065 5.98443 8.3582 5.98443 6.53595C5.98455 5.0592 7.75593 4.11646 8.97543 4.11646H10.2477V5.71646H8.97543C8.34393 5.71646 7.58455 6.21983 7.58455 6.53621C7.58455 7.14608 7.54005 8.19096 7.41443 9.12746C7.20943 10.6561 6.86593 11.5202 6.30055 11.9298L6.0568 12.1001L6.28943 12.2626C6.86593 12.6797 7.20955 13.5495 7.41455 15.0901C7.53993 16.0336 7.58443 17.084 7.58443 17.6968C7.58443 18.0132 8.34393 18.5166 8.9753 18.5166H10.2476L10.2477 20.1166Z" fill="#2D2B29"/>
<path d="M15.0248 20.1166H13.7677V18.5166H15.0248C15.6563 18.5166 16.4157 18.0132 16.4157 17.6968C16.4157 17.0842 16.4602 16.0338 16.5858 15.0901C16.7908 13.5495 17.1344 12.6798 17.7 12.2703L17.9434 12.1001L17.7108 11.9376C17.1344 11.5203 16.7909 10.656 16.5858 9.12746C16.4602 8.19083 16.4155 7.14621 16.4155 6.53621C16.4155 6.21996 15.656 5.71646 15.0247 5.71646H13.7677V4.11633H15.0248C16.2443 4.11633 18.0157 5.05908 18.0157 6.53608C18.0157 8.35821 18.3149 10.3063 18.6444 10.638L19.3299 11.1168C19.544 11.2666 19.6717 11.5115 19.6717 11.7727V12.4275C19.6717 12.6887 19.5442 12.9336 19.3299 13.0833L18.6449 13.562C18.315 13.8977 18.0157 15.8612 18.0157 17.697C18.0157 19.1737 16.2443 20.1166 15.0248 20.1166Z" fill="#2D2B29"/>
</svg>
