<svg width="24" height="25" viewBox="0 0 24 25" fill="none" xmlns="http://www.w3.org/2000/svg">
<path d="M11.996 6.41259C10.3244 6.41259 8.77998 7.10472 7.68398 8.27134V5.98059H6.08398V10.7006C6.08398 11.1423 6.44211 11.5806 6.88398 11.5806H11.684V9.98059H8.37323C9.15936 8.76534 10.5077 8.01259 11.9961 8.01259C14.3782 8.01259 16.3161 9.95047 16.3161 12.3326C16.3161 14.7147 14.3782 16.6526 11.9961 16.6526C10.1831 16.6526 8.55048 15.508 7.93311 13.8042C7.90211 13.7183 7.87348 13.631 7.84798 13.5432L7.84398 13.3405L6.24411 13.3553L6.27711 13.8666C6.32036 14.0285 6.37136 14.1907 6.42861 14.3493C7.27448 16.684 9.51198 18.2526 11.996 18.2526C15.2604 18.2526 17.916 15.597 17.916 12.3326C17.916 9.06822 15.2605 6.41259 11.996 6.41259Z" fill="#2D2B29"/>
</svg>
