<svg width="24" height="25" viewBox="0 0 24 25" fill="none" xmlns="http://www.w3.org/2000/svg">
<path d="M13.9202 10.4364C13.9202 11.4971 13.0609 12.3564 12.0002 12.3564C10.9402 12.3564 10.0802 11.4971 10.0802 10.4364C10.0802 9.37561 10.9402 8.51636 12.0002 8.51636C13.0609 8.51636 13.9202 9.37561 13.9202 10.4364Z" fill="#2D2B29"/>
<path d="M12.0002 4.19629C8.64768 4.19629 5.92018 7.06729 5.92018 10.5963C5.92018 12.0458 6.74493 13.9495 8.44181 16.4169C9.59843 18.0987 10.7411 19.4262 10.7891 19.4819C11.0931 19.8339 11.5352 20.0363 12.0003 20.0363C12.4654 20.0363 12.9076 19.8339 13.2113 19.4819C13.2593 19.4263 14.4021 18.0987 15.5586 16.4169C17.2556 13.9495 18.0803 12.0457 18.0803 10.5963C18.0803 7.06729 15.3527 4.19629 12.0002 4.19629ZM12.0002 18.4363C12.0002 18.4363 7.52018 13.2472 7.52018 10.5963C7.52018 7.94529 9.52581 5.79629 12.0002 5.79629C14.4746 5.79629 16.4802 7.94529 16.4802 10.5963C16.4802 13.2472 12.0002 18.4363 12.0002 18.4363Z" fill="#2D2B29"/>
</svg>
