<svg width="24" height="25" viewBox="0 0 24 25" fill="none" xmlns="http://www.w3.org/2000/svg">
<path d="M18.4021 16.3925H8.88206C8.46393 16.3925 8.12531 16.0538 8.12531 15.6363V5.19265C8.12518 4.77503 8.46393 4.43628 8.88206 4.43628H18.4021C18.8202 4.43628 19.1588 4.77503 19.1588 5.19265V15.6363C19.1588 16.0538 18.8201 16.3925 18.4021 16.3925ZM9.63881 14.8795H17.6451V5.9494H9.63881V14.8795Z" fill="#2D2B29"/>
<path d="M10.925 8.13672H16.365V9.73672H10.925V8.13672Z" fill="#2D2B29"/>
<path d="M10.925 11.1926H16.365V12.7926H10.925V11.1926Z" fill="#2D2B29"/>
<path d="M16.6497 19.7963H5.64167C5.19992 19.7963 4.84167 19.4382 4.84167 18.9963V7.07629H6.44167V18.1963H16.6497V19.7963Z" fill="#2D2B29"/>
</svg>
