<svg width="24" height="25" viewBox="0 0 24 25" fill="none" xmlns="http://www.w3.org/2000/svg">
<path d="M4 18.2764H20V19.8764H4V18.2764Z" fill="#2D2B29"/>
<path d="M7.68 4.35632H4.8C4.35825 4.35632 4 4.71457 4 5.15632V16.5163C4 16.9582 4.35825 17.3163 4.8 17.3163H7.68C8.12175 17.3163 8.48 16.9582 8.48 16.5163V5.15632C8.48 4.71457 8.12175 4.35632 7.68 4.35632ZM6.88 15.7163H5.6V5.95632H6.88V15.7163Z" fill="#2D2B29"/>
<path d="M13.44 7.71631H10.56C10.1183 7.71631 9.76001 8.07456 9.76001 8.51631V16.5163C9.76001 16.9582 10.1183 17.3163 10.56 17.3163H13.44C13.8818 17.3163 14.24 16.9582 14.24 16.5163V8.51631C14.24 8.07456 13.8818 7.71631 13.44 7.71631ZM12.64 15.7163H11.36V9.31631H12.64V15.7163Z" fill="#2D2B29"/>
<path d="M19.2 12.0364H16.32C15.8783 12.0364 15.52 12.3945 15.52 12.8364V16.5164C15.52 16.9583 15.8783 17.3164 16.32 17.3164H19.2C19.6418 17.3164 20 16.9583 20 16.5164V12.8364C20 12.3945 19.6418 12.0364 19.2 12.0364ZM18.4 15.7164H17.12V13.6364H18.4V15.7164Z" fill="#2D2B29"/>
</svg>
