<svg width="24" height="25" viewBox="0 0 24 25" fill="none" xmlns="http://www.w3.org/2000/svg">
<path d="M16.4803 4.11633H7.52026C6.63676 4.11633 5.92026 4.83283 5.92026 5.71633V18.5163C5.92026 19.3998 6.63676 20.1163 7.52026 20.1163H16.4803C17.3638 20.1163 18.0803 19.3998 18.0803 18.5163V5.71633C18.0803 4.83283 17.3638 4.11633 16.4803 4.11633ZM16.4803 18.5163H7.52026V5.71633H16.4803V18.5163Z" fill="#2D2B29"/>
<path d="M15.2003 7.6363C15.2003 7.19443 14.8421 6.8363 14.4003 6.8363H9.60026C9.15839 6.8363 8.80026 7.19443 8.80026 7.6363V13.7163C8.80026 14.1582 9.15839 14.5163 9.60026 14.5163H14.4003C14.8421 14.5163 15.2003 14.1582 15.2003 13.7163V7.6363ZM10.4003 8.4363H13.6003V12.9163H10.4003V8.4363Z" fill="#2D2B29"/>
<path d="M11.9841 15.5564C11.3669 15.5564 10.8643 16.058 10.8643 16.6764C10.8643 17.2948 11.3668 17.7964 11.9841 17.7964C12.6029 17.7964 13.1043 17.2948 13.1043 16.6764C13.1043 16.058 12.6033 15.5564 11.9841 15.5564Z" fill="#2D2B29"/>
</svg>
