<svg width="24" height="25" viewBox="0 0 24 25" fill="none" xmlns="http://www.w3.org/2000/svg">
<path d="M15.6988 19.6347C14.645 19.6347 13.4522 19.276 12.6702 18.0737L8.22141 11.2365C8.17041 11.1581 7.72666 10.4428 7.91329 9.56508C8.00016 9.15546 8.26091 8.56558 9.00916 8.08058C10.3659 7.20083 11.5817 7.99321 12.0675 8.74008L15.1148 13.4237L13.7737 14.2963L10.7263 9.61246C10.6433 9.49308 10.373 9.10258 9.87954 9.42283C9.64829 9.57271 9.51329 9.73246 9.47841 9.89746C9.43016 10.1245 9.56116 10.3615 9.56254 10.3637L14.0115 17.2012C14.7977 18.4092 16.3579 17.9868 16.7257 17.8662C18.3937 16.6492 17.6184 15.0888 17.4258 14.7576L13.3737 8.52983C12.3434 6.94621 10.9638 6.11996 9.49366 6.20008C8.26554 6.26821 7.16091 6.98958 6.61079 8.08271C5.95691 9.38221 6.16529 10.9602 7.19779 12.526L8.99079 15.2815L7.64966 16.1541L5.85954 13.4027C4.52066 11.3727 4.27254 9.16983 5.18166 7.36358C5.98854 5.76033 7.60691 4.70233 9.40529 4.60283C11.4418 4.49058 13.378 5.60333 14.7147 7.65758L18.7892 13.9206C19.4515 15.0083 20.0458 17.5205 17.5523 19.2417L17.4769 19.2937L17.3915 19.3273C16.9753 19.4915 16.3647 19.6348 15.6989 19.6348L15.6988 19.6347Z" fill="#2D2B29"/>
</svg>
