<svg width="24" height="25" viewBox="0 0 24 25" fill="none" xmlns="http://www.w3.org/2000/svg">
<path d="M15.1563 9.39614H14.5437C14.5732 9.23614 14.6145 9.24277 14.6692 9.16889C14.7565 9.05114 14.8423 8.99314 15.0675 8.99314C15.4918 8.99314 15.8873 8.82527 16.1874 8.52527C16.4875 8.22539 16.6444 7.81939 16.6444 7.39489V5.71389C16.6444 5.26302 16.4702 4.83289 16.1365 4.52989C15.8407 4.26114 15.4645 4.11389 15.0684 4.11389C15.0179 4.11389 14.971 4.11614 14.9202 4.12114C14.7888 4.13364 13.6279 4.26177 12.4117 4.88177C10.5847 5.81364 9.60441 7.39552 9.60441 9.33677V9.39602H8.75641C7.87278 9.39602 7.20441 10.1199 7.20441 11.0036V12.6036C7.20441 13.487 7.87266 14.196 8.75641 14.196H9.60441V18.505C9.60441 19.3884 10.2728 20.116 11.1564 20.116H12.9164C13.8002 20.116 14.5644 19.3883 14.5644 18.505V14.196H15.1564C16.0402 14.196 16.8044 13.487 16.8044 12.6036V11.0036C16.8044 10.1198 16.0402 9.39602 15.1564 9.39602L15.1563 9.39614ZM15.2043 12.5961H12.9643V18.5161H11.2043V12.5961H8.80428V10.9961H11.2043V9.33689C11.2043 6.08877 15.0443 5.71402 15.0443 5.71402V7.31614C15.0443 7.31614 15.0705 7.31614 15.0677 7.31614C13.2253 7.31614 12.9643 9.28289 12.9643 9.28289V10.9961H15.2043V12.5961Z" fill="#2D2B29"/>
</svg>
