<svg width="24" height="25" viewBox="0 0 24 25" fill="none" xmlns="http://www.w3.org/2000/svg">
<path d="M13.8007 4.42296C13.8026 4.87871 13.5367 5.13496 13.3162 5.26909C9.5483 3.15659 5.95355 4.93259 4.54343 6.21084C4.35968 6.37759 4.26355 6.62009 4.2833 6.86746C4.30318 7.11484 4.43655 7.33896 4.64455 7.47434C4.7958 7.57259 5.91368 8.28421 7.02793 8.57184C7.0353 8.92334 7.0693 9.36196 7.16643 9.81534C7.48805 11.3152 8.36018 12.2852 9.62255 12.5468C9.6763 12.5581 9.73068 12.5635 9.78493 12.5635C9.9428 12.5635 10.0986 12.5167 10.2317 12.4271C10.3608 12.3401 10.5074 12.25 10.6624 12.1545C11.7658 11.4752 13.4338 10.4483 13.4167 7.67859L11.8167 7.68846C11.8282 9.55771 10.8544 10.1572 9.82343 10.792C9.76993 10.825 9.71755 10.8572 9.6658 10.8892C8.40993 10.3235 8.64155 8.00334 8.64368 7.97996C8.6688 7.75584 8.59793 7.53134 8.44868 7.36221C8.29943 7.19309 8.08568 7.09446 7.86018 7.09146C7.52355 7.08671 7.05243 6.92459 6.59905 6.71896C7.86518 6.00559 10.2121 5.19909 12.8317 6.84121C13.0208 6.95971 13.2514 6.99346 13.4671 6.93534C14.1386 6.75234 15.4071 5.99009 15.4007 4.41609L13.8007 4.42296Z" fill="#2D2B29"/>
<path d="M15.8928 15.123C14.9113 14.1185 13.6272 13.6091 12.0761 13.6091C9.83882 13.6091 7.82219 14.696 7.73744 14.7423C7.51607 14.863 7.36469 15.0811 7.32882 15.3308C7.29294 15.5804 7.37694 15.8321 7.55519 16.0105C7.59857 16.0538 8.52107 16.9595 9.98494 17.1699C10.3583 18.1476 11.2402 19.9398 12.6807 19.9398C12.8789 19.9398 13.0703 19.866 13.2173 19.733C13.2843 19.6723 14.8741 18.2213 16.0267 16.0584C16.1907 15.7506 16.1364 15.3725 15.8928 15.123ZM12.4608 18.2334C12.1018 17.9341 11.6019 17.05 11.3344 16.1798C11.2323 15.8448 10.9246 15.6153 10.5743 15.613C10.3709 15.6118 10.1793 15.5869 10.0021 15.5471C10.6054 15.3636 11.3338 15.2093 12.0762 15.2093C12.9503 15.2093 13.6958 15.4268 14.3007 15.8573C13.6348 16.9543 12.8776 17.8025 12.4608 18.2334Z" fill="#2D2B29"/>
<path d="M19.1577 11.2145C18.6282 9.67387 18.4224 7.71949 18.4204 7.69799C18.3788 7.29387 18.041 6.98487 17.6348 6.97962C17.6268 6.97962 17.6188 6.97949 17.6109 6.97949C16.8172 6.97949 16.0704 7.48537 15.3913 8.48362C14.9535 9.12699 14.6879 9.76837 14.6768 9.79549C14.6373 9.89199 14.617 9.98924 14.617 10.0936C14.5834 10.2949 13.9667 10.7877 13.2959 11.0754C13.0185 11.1931 12.8308 11.4571 12.8107 11.7581C12.7904 12.0589 12.9409 12.3456 13.2003 12.4995C13.265 12.5379 14.3827 13.1841 16.2277 13.1841C16.951 13.1841 17.7863 13.0847 18.7134 12.8105L19.7137 12.8196L19.728 11.2196L19.1577 11.2145ZM15.4937 11.545C15.8515 11.2026 16.1433 10.7816 16.2047 10.2909C16.4062 9.83524 16.7019 9.35562 16.9903 9.02062C17.1045 9.70637 17.2853 10.6039 17.5518 11.4514C16.7379 11.613 16.0445 11.6115 15.4937 11.545Z" fill="#2D2B29"/>
</svg>
