<svg width="24" height="25" viewBox="0 0 24 25" fill="none" xmlns="http://www.w3.org/2000/svg">
<path d="M6.72021 12.9163V11.3163H17.2802V12.9163H6.72021Z" fill="#2D2B29"/>
<path d="M16.8916 15.3562L12.5659 19.6819C12.4159 19.832 12.2126 19.9162 12.0003 19.9162C11.7881 19.9162 11.5847 19.832 11.4346 19.6819L7.10895 15.3562L8.24032 14.2249L12.0002 17.9849L15.7603 14.2249L16.8916 15.3562Z" fill="#2D2B29"/>
<path d="M16.8916 8.87628L15.7602 10.0077L12.0001 6.24766L8.2402 10.0077L7.10883 8.87628L11.4345 4.55066C11.5846 4.40041 11.788 4.31628 12.0002 4.31628C12.2125 4.31628 12.416 4.40053 12.5658 4.55066L16.8916 8.87628Z" fill="#2D2B29"/>
</svg>
