<svg width="24" height="25" viewBox="0 0 24 25" fill="none" xmlns="http://www.w3.org/2000/svg">
<path d="M8.50483 15.6343C7.75296 14.8868 6.53796 14.8849 5.78821 15.6344C5.03958 16.3848 5.04008 17.6003 5.78821 18.3503C6.53733 19.0982 7.75221 19.0999 8.50546 18.3502C9.25446 17.6006 9.25396 16.3852 8.50483 15.6343Z" fill="#2D2B29"/>
<path d="M18.7731 16.8399L17.1731 16.8398V16.0398C17.1733 11.0123 13.0822 6.92166 8.05305 6.92141H7.25305V5.32141H8.05305C13.9644 5.32179 18.7734 10.13 18.7731 16.04V16.8399Z" fill="#2D2B29"/>
<path d="M15.6731 16.8398H14.0731V16.0398C14.0732 12.7215 11.3726 10.0216 8.05293 10.0214H7.25293L7.2533 8.42139H8.0533C12.2551 8.42189 15.6733 11.8395 15.6732 16.0398L15.6731 16.8398Z" fill="#2D2B29"/>
<path d="M10.9733 16.8399L10.9731 16.0399C10.9726 14.4309 9.66268 13.1216 8.05293 13.1215H7.25293L7.2533 11.5215H8.0533C10.5447 11.5217 12.5723 13.5485 12.5732 16.0394L12.5734 16.8394L10.9733 16.8399Z" fill="#2D2B29"/>
</svg>
