<svg width="24" height="25" viewBox="0 0 24 25" fill="none" xmlns="http://www.w3.org/2000/svg">
<path d="M18.4044 4.91504H5.60439C4.72077 4.91504 4.00439 5.63129 4.00439 6.51504V17.715C4.00439 18.5988 4.72077 19.315 5.60439 19.315H18.4044C19.288 19.315 20.0044 18.5988 20.0044 17.715V6.51504C20.0044 5.63141 19.2881 4.91504 18.4044 4.91504ZM5.60452 6.51504H18.4045V9.14266C15.8215 10.9634 12.9004 12.8827 12.2593 13.0873C12.0964 13.0883 11.9335 13.094 11.7706 13.0899C11.1439 12.8953 8.20452 10.9689 5.60452 9.14154V6.51504ZM18.4044 11.0984V17.715H5.60439V11.0957C5.59377 11.0883 5.59364 11.0882 5.60427 11.0955C8.98027 13.4429 11.0081 14.65 11.6391 14.6857C11.8671 14.6987 12.096 14.6869 12.3241 14.6869C12.5644 14.6869 18.4044 11.0984 18.4044 11.0984Z" fill="#2D2B29"/>
</svg>
