<svg width="24" height="25" viewBox="0 0 24 25" fill="none" xmlns="http://www.w3.org/2000/svg">
<path d="M17.59 14.4848C17.8745 14.4848 18.1476 14.5396 18.4001 14.6376V12.4213C18.4001 11.9796 17.9988 11.6367 17.5568 11.6367H12.8001V8.59155C12.6595 8.64868 12.511 8.69268 12.356 8.7208C12.2238 8.7448 12.089 8.75693 11.9555 8.75693C11.6915 8.75693 11.4372 8.71018 11.2001 8.6253V11.6367H6.35685C5.9151 11.6367 5.6001 11.9796 5.6001 12.4213V14.5912C5.70572 14.5552 5.81385 14.5244 5.92572 14.5043C6.05785 14.4803 6.1926 14.4682 6.32622 14.4682H6.32635C6.6351 14.4682 6.92997 14.5329 7.2001 14.6477V13.2367H11.2001V15.5888C11.3253 15.5419 11.4555 15.5047 11.59 15.4802C11.722 15.4563 11.8566 15.4443 11.99 15.4443C12.2745 15.4443 12.5476 15.4991 12.8001 15.5971V13.2366H16.8001V14.6291C16.9253 14.5822 17.0555 14.5449 17.19 14.5204C17.322 14.4966 17.4565 14.4848 17.59 14.4848Z" fill="#2D2B29"/>
<path d="M12.2849 8.09104C11.4154 8.24779 10.583 7.67104 10.4261 6.80129C10.268 5.93179 10.8451 5.09967 11.7146 4.94229C12.5847 4.78517 13.4162 5.36229 13.5741 6.23142C13.7317 7.10129 13.1541 7.93342 12.2849 8.09104Z" fill="#2D2B29"/>
<path d="M6.63685 18.331C5.76735 18.4878 4.93497 17.911 4.7781 17.0413C4.61997 16.1718 5.1971 15.3397 6.0666 15.1823C6.93672 15.0252 7.76822 15.6023 7.9261 16.4714C8.08372 17.3413 7.5061 18.1735 6.63685 18.331Z" fill="#2D2B29"/>
<path d="M12.2849 19.291C11.4154 19.4477 10.583 18.871 10.4261 18.0012C10.268 17.1317 10.8451 16.2996 11.7146 16.1422C12.5847 15.9851 13.4162 16.5622 13.5741 17.4314C13.7317 18.3012 13.1541 19.1335 12.2849 19.291Z" fill="#2D2B29"/>
<path d="M17.9329 18.331C17.0634 18.4878 16.231 17.911 16.0741 17.0413C15.916 16.1718 16.4931 15.3397 17.3626 15.1823C18.2327 15.0252 19.0642 15.6023 19.2221 16.4714C19.3797 17.3413 18.8021 18.1735 17.9329 18.331Z" fill="#2D2B29"/>
</svg>
