<svg width="24" height="25" viewBox="0 0 24 25" fill="none" xmlns="http://www.w3.org/2000/svg">
<path d="M17.7936 15.6366H16.6398V13.6407C16.6398 13.1978 16.4912 12.9166 16.0438 12.9166H15.2499C16.1163 11.3166 16.8793 9.97108 16.8693 8.76808C16.8461 5.87858 15.0726 4.11658 12.2407 4.11658H12.1857C10.7584 4.11658 9.54945 4.50708 8.68957 5.3502C7.8187 6.20395 7.36457 7.40345 7.37632 8.81358C7.38544 9.92858 8.10145 11.3166 8.95995 12.9166H8.20207C7.75457 12.9166 7.35995 13.1978 7.35995 13.6407V15.6366H6.61407C6.1667 15.6366 5.59995 15.9248 5.59995 16.368V19.1063C5.59995 19.5493 6.1667 20.1165 6.61407 20.1165H17.7939C18.2413 20.1166 18.4001 19.5495 18.4001 19.1066V16.368C18.4001 15.925 18.2413 15.6366 17.7938 15.6366H17.7936ZM9.82945 6.48808C10.3832 5.94533 11.2024 5.71658 12.1987 5.71658H12.2408C13.6019 5.71658 15.2287 6.18333 15.2492 8.7402C15.2588 9.88095 13.9142 11.9796 13.4082 12.783C13.1036 13.2662 13.0312 13.3636 13.0116 13.5898C12.9922 13.8137 13.0686 14.0631 13.2219 14.2287C13.3753 14.3943 13.5918 14.5166 13.8187 14.5166H15.0398V15.6366H8.95982V14.5166H10.3494C10.5729 14.5166 10.7866 14.3881 10.9397 14.2271C11.0928 14.0658 11.1718 13.8305 11.1581 13.6097C11.1438 13.3823 11.0773 13.261 10.7573 12.7216C10.2781 11.9137 9.00482 9.78745 8.9967 8.75408C8.98857 7.7867 9.27657 7.03008 9.82945 6.48808ZM16.7998 18.5166H7.35982V17.2366H16.7998V18.5166Z" fill="#2D2B29"/>
</svg>
