<svg width="24" height="25" viewBox="0 0 24 25" fill="none" xmlns="http://www.w3.org/2000/svg">
<path d="M9.75946 15.3152L6.79946 15.3149C5.28971 15.3149 4.06071 14.1338 4.00171 12.6262C4.00071 12.5995 4.00071 12.2868 4.00109 12.1609V12.1148C4.00109 12.0863 4.00221 11.6344 4.00321 11.6065C4.06309 10.0958 5.29184 8.91479 6.80109 8.91479H10.5611V10.5148H6.80109C6.15421 10.5148 5.62771 11.0207 5.60209 11.6663C5.60159 11.7062 5.60109 12.0897 5.60109 12.1148V12.1635C5.60096 12.2722 5.60046 12.5338 5.60109 12.5788C5.62571 13.2092 6.15246 13.7149 6.79946 13.7149L9.75946 13.715V15.3152Z" fill="#2D2B29"/>
<path d="M8.4873 11.3149H15.5273V12.9149H8.4873V11.3149Z" fill="#2D2B29"/>
<path d="M14.2493 15.3152L14.2491 13.715L17.2093 13.7149C17.8562 13.7149 18.3828 13.2092 18.4081 12.5634C18.4083 12.5269 18.4078 12.2709 18.4076 12.1639V12.1148C18.4076 12.0907 18.4075 11.7335 18.4063 11.6612C18.3751 11.0147 17.851 10.5148 17.2076 10.5148H13.4473V8.91479H17.2073C18.7171 8.91479 19.9461 10.0958 20.0052 11.6034C20.0065 11.6314 20.0075 11.8057 20.0075 12.1148V12.1604C20.0085 12.5907 20.0077 12.6057 20.0065 12.6324C19.9475 14.1337 18.7187 15.3149 17.2092 15.3149L14.2493 15.3152Z" fill="#2D2B29"/>
</svg>
