<svg width="24" height="25" viewBox="0 0 24 25" fill="none" xmlns="http://www.w3.org/2000/svg">
<path d="M18.4119 4.64412C18.1007 4.52687 17.7292 4.65787 17.5092 4.90787C16.6598 5.87312 13.9691 8.422 11.8382 8.422H7.6247C6.21682 8.422 5.08807 9.43637 5.03332 10.7922C5.0327 10.8169 5.03107 11.5986 5.03232 11.6169C5.08107 12.845 6.0082 13.8324 7.1282 14.0275V17.5352C7.1282 18.6791 8.14482 19.5946 9.39295 19.6292L9.8962 19.628C11.1389 19.5917 12.0881 18.6769 12.0881 17.5352V14.0954C14.0082 14.392 16.6224 16.5997 17.5432 17.4881C17.6953 17.6349 17.8918 17.7122 18.0952 17.7122C18.2007 17.7122 18.3434 17.6915 18.4442 17.6487C18.7397 17.5232 18.9682 17.2335 18.9682 16.9124V5.39237C18.9682 5.05962 18.7236 4.76162 18.4118 4.64425L18.4119 4.64412ZM10.4882 17.535C10.4882 17.8056 10.1832 18.0179 9.80982 18.0287L9.46732 18.0219C9.0942 18.0219 8.72832 17.8055 8.72832 17.5349C8.72832 14.8305 8.72832 14.8217 8.72832 14.1819H10.4883C10.4883 14.1819 10.4883 17.4219 10.4882 17.535ZM17.3682 15.1517C15.9282 14.0037 13.6282 12.4611 11.7094 12.4611C11.6779 12.4611 11.6273 12.4616 11.5956 12.4625C11.5149 12.4647 11.1833 12.467 10.1072 12.467C9.4432 12.467 8.69795 12.466 8.19045 12.4654L7.6257 12.4647C7.08607 12.4647 6.66182 12.0725 6.6327 11.5575L6.6322 10.8511C6.6522 10.3532 7.06945 10.0216 7.6247 10.0216H11.8383C13.8768 10.0216 15.9282 8.45825 17.3682 7.29487V15.1515V15.1517Z" fill="#2D2B29"/>
</svg>
