<svg width="24" height="25" viewBox="0 0 24 25" fill="none" xmlns="http://www.w3.org/2000/svg">
<path d="M11.9999 6.84131L11.9959 6.84318H11.9957C10.8564 6.84318 9.74219 7.16318 8.77344 7.76968C5.93219 9.54943 5.06844 13.3079 6.84781 16.1491C7.96669 17.9354 9.89444 19.0016 12.0046 19.0016C13.1434 19.0016 14.2577 18.6808 15.2267 18.0741C18.0677 16.2948 18.9334 12.5359 17.1547 9.69506C16.0358 7.90806 14.0801 6.84131 11.9999 6.84131ZM14.3776 16.7178C13.6386 17.1807 12.8164 17.4013 12.0044 17.4013C10.5123 17.4013 9.05369 16.6563 8.20381 15.2992C6.89019 13.2019 7.52606 10.4379 9.62244 9.12481C10.3614 8.66206 11.1837 8.44143 11.9957 8.44131C13.4878 8.44131 14.9462 9.18606 15.7968 10.5442C17.1093 12.6402 16.4741 15.4049 14.3776 16.7178Z" fill="#2D2B29"/>
<path d="M12.6399 9.40308H11.0399V13.1926C11.0399 13.548 11.2702 13.8606 11.6113 13.9605L13.993 14.6578L14.4452 13.1222L12.6398 12.5931L12.6399 9.40308Z" fill="#2D2B29"/>
<path d="M8.1308 6.99102L8.77455 6.51614L7.82468 5.22839L7.18105 5.70339C6.31143 6.34502 5.56005 7.12089 4.81668 8.14552L4.3468 8.79289L5.64168 9.73277L6.11155 9.08527C6.75568 8.19777 7.3973 7.53227 8.1308 6.99102Z" fill="#2D2B29"/>
<path d="M19.1833 8.14552C18.4399 7.12089 17.6885 6.34502 16.8188 5.70339L16.175 5.22839L15.2253 6.51614L15.8689 6.99102C16.6024 7.53227 17.2443 8.19777 17.8883 9.08527L18.3583 9.73277L19.6532 8.79289L19.1833 8.14552Z" fill="#2D2B29"/>
</svg>
