<svg width="24" height="25" viewBox="0 0 24 25" fill="none" xmlns="http://www.w3.org/2000/svg">
<path d="M17.3643 11.635H12.4923V10.035H15.7208C15.0768 8.42272 13.5195 7.31497 11.7346 7.31497C9.68483 7.31497 7.85233 8.75659 7.53233 10.7533V10.835H5.88433L5.91821 10.5258C6.44683 7.73834 8.84283 5.71497 11.6845 5.71497C13.6617 5.71497 15.5323 6.70822 16.4923 8.25659V6.03497H18.0925V10.835C18.0925 11.2767 17.8061 11.635 17.3643 11.635Z" fill="#2D2B29"/>
<path d="M6.66033 12.595H10.7323V14.1951H8.30383C8.94796 15.8072 10.5052 16.9151 12.2902 16.9151C14.3398 16.9151 16.1723 15.4735 16.4923 13.4766V13.395H18.1245L18.1062 13.7041C17.5777 16.4917 15.1817 18.515 12.3401 18.515C10.3628 18.515 8.49221 17.5217 7.53221 15.9733V17.395H5.93221V13.395C5.93221 12.9531 6.21846 12.595 6.66033 12.595Z" fill="#2D2B29"/>
</svg>
