<svg width="24" height="25" viewBox="0 0 24 25" fill="none" xmlns="http://www.w3.org/2000/svg">
<path d="M6.40389 8.59123C5.43927 8.59123 4.00402 9.23048 4.00402 10.9912C4.00402 12.6345 5.43927 13.2312 6.40389 13.2312H9.93627C9.93689 13.5514 9.94614 13.9022 9.97402 14.2919C10.0816 15.7927 10.403 16.7841 10.9561 17.3374C11.8318 18.2134 13.4113 18.3442 14.2748 18.3442C14.4033 18.3442 14.501 18.3414 14.5574 18.3389C14.6591 18.345 14.9014 18.357 15.2214 18.357C17.0404 18.357 18.3055 18.0142 18.9821 17.3377C20.0886 16.231 20.0111 13.8495 19.9839 13.3777C20.0113 12.9062 20.0888 10.525 18.982 9.41823C18.954 9.39011 18.9238 9.36448 18.8918 9.34098L15.0758 6.52273C14.8863 6.35061 14.2994 5.87573 13.6079 5.87573C13.0296 5.87573 12.5336 6.20986 12.2473 6.78648C11.9221 7.44161 11.8466 8.11148 11.8935 8.59136L6.40389 8.59123ZM6.40389 11.6316C6.10977 11.6316 5.60402 11.5345 5.60402 10.9916C5.60402 10.3475 6.04414 10.1916 6.41377 10.1916H12.9639C13.2653 10.1916 13.5504 10.0287 13.6869 9.76023C13.8234 9.49148 13.8063 9.17536 13.6284 8.93223C13.5986 8.88273 13.2749 8.31073 13.6794 7.49398C13.784 7.53898 13.9368 7.64411 14.0081 7.71336C14.0334 7.73773 14.0604 7.76048 14.0888 7.78148L17.8845 10.5854C18.3226 11.0846 18.4418 12.4731 18.3845 13.3232C18.3819 13.3596 18.3819 13.397 18.3845 13.4335C18.4433 14.3041 18.3165 15.7409 17.8509 16.2065C17.5846 16.4729 16.7541 16.7574 15.2216 16.7574C14.8661 16.7574 14.6248 16.7404 14.6224 16.7402C14.5869 16.7376 14.5505 16.7376 14.5155 16.7397C14.5061 16.7404 14.4166 16.7454 14.2754 16.7454C13.273 16.7454 12.4144 16.535 12.0876 16.2082C11.6571 15.7775 11.4645 13.929 11.5546 12.4712C11.5681 12.2507 11.4901 12.0377 11.3389 11.877C11.1878 11.716 10.9768 11.6315 10.756 11.6315L6.40389 11.6316Z" fill="#2D2B29"/>
</svg>
