<svg width="24" height="25" viewBox="0 0 24 25" fill="none" xmlns="http://www.w3.org/2000/svg">
<path d="M15.0845 16.4833C15.7017 16.3787 16.3644 16.3255 17.0572 16.3255C17.7416 16.3257 18.2006 16.3799 18.2051 16.3805C18.269 16.3882 18.3331 16.3919 18.3969 16.3919C18.7862 16.3919 19.1656 16.2501 19.4599 15.9892C19.8024 15.6856 20.0002 15.2499 20.0002 14.7924V6.7924C20.0002 6.02515 19.4557 5.36603 18.7024 5.22115C18.6574 5.21253 17.5835 5.00928 16.1627 5.00928C15.5334 5.00928 14.922 5.04878 14.3457 5.1269C14.1159 5.1579 13.851 5.23378 12.9059 5.5194C12.6297 5.60278 12.256 5.7159 12.0014 5.78815C11.7457 5.71378 11.3694 5.59678 11.1136 5.51728C10.2426 5.24628 9.9155 5.14815 9.66687 5.11265C9.09212 5.03028 8.48437 4.98853 7.861 4.98853C6.408 4.98853 5.31337 5.2179 5.26762 5.22753C4.52862 5.38453 4.00025 6.03703 4.00025 6.79228V14.7923C4.00025 15.2505 4.19687 15.6868 4.53987 15.9905C4.83412 16.2508 5.21175 16.3923 5.60012 16.3923C5.66475 16.3923 5.73 16.3884 5.795 16.3804C5.79612 16.3803 6.25275 16.3272 6.93475 16.3272C7.63125 16.3272 8.29687 16.3798 8.91712 16.4838C9.139 16.623 9.53937 16.8943 9.8225 17.0863C10.1609 17.3159 10.4305 17.4983 10.6562 17.644H4.00012V19.244H20.0001V17.644H13.344C13.5697 17.4981 13.8395 17.3155 14.1782 17.0862C14.4621 16.8939 14.863 16.6222 15.0845 16.4833ZM11.2002 16.0862C10.505 15.6209 9.593 14.9817 9.44025 14.9524C9.3315 14.9317 9.2235 14.913 9.11612 14.8956C9.10562 14.8939 9.09462 14.8921 9.08412 14.8904C8.98225 14.8743 8.88137 14.8598 8.78125 14.8465C8.76587 14.8444 8.75062 14.8424 8.73537 14.8404C8.63862 14.8279 8.54262 14.8168 8.44787 14.8065C8.4305 14.8047 8.41287 14.8029 8.3955 14.8012C8.30237 14.7915 8.21037 14.783 8.1195 14.7757C8.10237 14.7743 8.08525 14.7728 8.06812 14.7717C7.97762 14.7644 7.88812 14.7582 7.80037 14.7531C7.7855 14.7524 7.771 14.7515 7.75637 14.7508C7.667 14.7458 7.579 14.7413 7.49312 14.7383C7.48387 14.7378 7.47525 14.7376 7.46587 14.7373C7.38312 14.7343 7.30237 14.7322 7.2235 14.7305C7.21362 14.7304 7.20312 14.73 7.19325 14.7299C7.11387 14.7285 7.03712 14.7465 6.96237 14.7465L6.76975 14.7468C6.75937 14.747 6.74925 14.738 6.739 14.7382C6.57612 14.7404 6.427 14.7403 6.29425 14.7462C6.29087 14.7463 6.28725 14.7443 6.284 14.7444C6.25662 14.7457 6.23075 14.7457 6.20475 14.7469C6.19512 14.7474 6.18525 14.7474 6.17575 14.748C6.15287 14.7492 6.13137 14.7501 6.10987 14.7514C6.09887 14.752 6.0875 14.7527 6.07675 14.7533C6.05612 14.7545 6.03637 14.7556 6.01687 14.7568C6.007 14.7574 5.997 14.758 5.98737 14.7586C5.96862 14.76 5.95075 14.7614 5.93312 14.7625C5.92375 14.7632 5.91437 14.7639 5.90537 14.7647C5.88875 14.7659 5.87275 14.7671 5.85725 14.7683C5.84875 14.7689 5.84062 14.7695 5.83262 14.7702C5.81875 14.7714 5.80525 14.7725 5.7925 14.7735C5.78375 14.7743 5.77525 14.7752 5.767 14.7758C5.75562 14.7769 5.74475 14.7779 5.7345 14.7788C5.72812 14.7794 5.72225 14.78 5.71625 14.7805C5.70537 14.7817 5.69487 14.7826 5.6855 14.7835C5.68087 14.784 5.67675 14.7845 5.6725 14.7849C5.6645 14.7857 5.6565 14.7865 5.64975 14.7873C5.645 14.7878 5.64075 14.7883 5.63662 14.7887C5.6225 14.79 5.6115 14.7914 5.60587 14.792C5.602 14.7918 5.59975 14.792 5.59975 14.792V6.79203C5.59975 6.79203 5.60387 6.79103 5.608 6.79028C5.60987 6.7899 5.61087 6.78965 5.61337 6.78915C5.6195 6.7879 5.62812 6.78615 5.63812 6.78415C5.6405 6.78365 5.64187 6.78353 5.6445 6.7829C5.657 6.78053 5.67312 6.77765 5.69075 6.77428C5.695 6.77353 5.69937 6.77253 5.704 6.77178C5.72062 6.76853 5.73987 6.7654 5.76025 6.7619C5.76475 6.76115 5.7685 6.76028 5.77325 6.75953C5.79825 6.75515 5.826 6.7504 5.85625 6.74565C5.86125 6.7449 5.8665 6.7439 5.87175 6.74315C5.89837 6.73903 5.92712 6.7344 5.957 6.72965C5.9645 6.72853 5.97162 6.7274 5.97925 6.72628C6.01487 6.72103 6.05262 6.7154 6.09287 6.70965C6.09962 6.70865 6.10662 6.70778 6.1135 6.70678C6.14825 6.70215 6.1845 6.69715 6.2225 6.6924C6.23325 6.6909 6.244 6.68953 6.255 6.68828C6.30025 6.68253 6.3475 6.6769 6.39687 6.67128C6.402 6.67065 6.40737 6.67015 6.41287 6.66953C6.45762 6.6644 6.50425 6.65965 6.55225 6.65465C6.56525 6.65315 6.57812 6.63628 6.59125 6.63503C6.6065 6.6334 6.6215 6.6304 6.63687 6.62653L6.75962 6.60415C6.81625 6.60415 6.8755 6.6104 6.93525 6.60603C6.95112 6.60503 6.96687 6.61178 6.98312 6.61065C7.03637 6.60715 7.09075 6.6074 7.14637 6.6044C7.156 6.6039 7.16512 6.60515 7.17475 6.60478C7.23812 6.6014 7.303 6.59953 7.369 6.5969C7.38575 6.59628 7.40287 6.59615 7.41987 6.59565C7.47537 6.59353 7.53175 6.59228 7.589 6.59103C7.60375 6.59065 7.61812 6.59853 7.63287 6.59828L7.7725 6.60178C7.796 6.6029 7.81925 6.60415 7.84287 6.60415C7.84862 6.60415 7.85425 6.60415 7.86 6.60415C7.86612 6.60415 7.8725 6.59653 7.87837 6.59653C7.9885 6.59665 8.10075 6.59415 8.215 6.59765C8.224 6.59778 8.23287 6.59753 8.24187 6.59715C8.24662 6.59603 8.2515 6.59478 8.25625 6.5949C8.36937 6.59853 8.48437 6.60403 8.601 6.6114C8.48437 6.60403 8.36937 6.60228 8.25625 6.59865C8.2515 6.59853 8.24662 6.60428 8.24187 6.60428C8.24662 6.60428 8.2515 6.60428 8.25625 6.60428C8.36937 6.60428 8.48437 6.60865 8.601 6.6159C8.61525 6.6169 8.6295 6.6154 8.64375 6.6164C8.7635 6.62428 8.88487 6.63315 9.0075 6.64565C9.01775 6.64665 9.02812 6.6469 9.0385 6.64803C9.17087 6.66165 9.30462 6.67728 9.43925 6.69665C9.3045 6.67728 9.17075 6.66115 9.0385 6.64753C9.02812 6.6464 9.01775 6.64528 9.0075 6.64428C9.01775 6.64528 9.02812 6.64615 9.0385 6.64728C9.17087 6.6609 9.30462 6.67703 9.43925 6.6964C9.63475 6.7244 10.5199 7.0114 11.1992 7.21865V16.086L11.2002 16.0862ZM12.8002 16.0862V7.22165C13.4872 7.01778 14.3856 6.7359 14.5602 6.71228C14.6967 6.6939 14.8322 6.6784 14.9665 6.6654C14.9762 6.6644 14.9859 6.66365 14.9956 6.66265C15.1211 6.65078 15.2454 6.64115 15.3681 6.63353C15.3805 6.63278 15.3926 6.6319 15.4051 6.63115C15.5266 6.6239 15.6465 6.61878 15.7644 6.61515C15.7742 6.61478 15.7845 6.6119 15.7945 6.61178L16.3814 6.6084C16.3967 6.60878 16.4116 6.61028 16.427 6.61065C16.4874 6.61178 16.5469 6.61403 16.6052 6.61578C16.6159 6.61615 16.6266 6.61678 16.6371 6.61703C16.7046 6.6194 16.7709 6.62215 16.8355 6.6254C16.8469 6.62603 16.8579 6.62665 16.8691 6.62728C16.9245 6.63015 16.9786 6.63315 17.0315 6.63653C17.0436 6.63728 17.056 6.63803 17.0681 6.63878C17.1289 6.64278 17.1885 6.6469 17.246 6.6514C17.2529 6.6519 17.2592 6.65253 17.266 6.65303C17.3169 6.65703 17.3665 6.66115 17.4147 6.66553C17.4274 6.66665 17.4399 6.66778 17.4521 6.6689C17.5587 6.67865 17.6579 6.6889 17.7489 6.69915C17.7591 6.7004 17.769 6.70153 17.779 6.70265C17.8206 6.70728 17.8607 6.71228 17.8986 6.71703C17.9011 6.7174 17.9037 6.71765 17.9062 6.71803C17.9474 6.72315 17.9857 6.72828 18.0222 6.73328C18.0299 6.7344 18.037 6.7354 18.0445 6.73653C18.0746 6.74053 18.1032 6.74465 18.1297 6.74853C18.1344 6.74928 18.1395 6.75003 18.144 6.75065C18.1741 6.75515 18.2015 6.7594 18.2265 6.76328C18.2317 6.76403 18.2364 6.7649 18.2414 6.76565C18.261 6.7689 18.279 6.77153 18.2951 6.77428C18.2997 6.77503 18.3046 6.7759 18.3089 6.77665C18.3262 6.77965 18.3421 6.78228 18.3546 6.78453C18.358 6.78515 18.3599 6.78553 18.363 6.78603C18.3721 6.78778 18.3802 6.78928 18.386 6.79015C18.3887 6.79065 18.3896 6.79078 18.3916 6.79115C18.3957 6.7919 18.4 6.79278 18.4 6.79278V14.7928C18.4 14.7928 18.3977 14.7925 18.3944 14.7922C18.3927 14.7919 18.3904 14.7916 18.3881 14.7914C18.3851 14.7912 18.3822 14.7907 18.378 14.7902C18.3747 14.7899 18.371 14.7894 18.3671 14.789C18.3617 14.7884 18.3559 14.7878 18.349 14.7869C18.3451 14.7864 18.3406 14.7859 18.3364 14.7857C18.3282 14.7846 18.3196 14.7838 18.3097 14.7828C18.3047 14.7823 18.2994 14.7816 18.2939 14.7811C18.283 14.78 18.2711 14.7789 18.2586 14.7778C18.2532 14.7773 18.2474 14.7768 18.2416 14.7762C18.2281 14.775 18.2141 14.7737 18.199 14.7725C18.192 14.7719 18.1847 14.7713 18.1772 14.7706C18.1614 14.7693 18.1447 14.7679 18.1274 14.7667C18.1201 14.766 18.113 14.7655 18.1055 14.7649C18.0872 14.7635 18.0681 14.762 18.0482 14.7607C18.0396 14.76 18.0311 14.7594 18.0221 14.7588C18.0021 14.7574 17.981 14.7559 17.9595 14.7547C17.9499 14.754 17.9406 14.7534 17.9307 14.7528C17.9082 14.7514 17.8845 14.75 17.8605 14.7488C17.8506 14.7482 17.841 14.7475 17.8306 14.747C17.8067 14.7457 17.7815 14.7443 17.7562 14.7432C17.7447 14.7427 17.7334 14.742 17.7215 14.7414C17.6914 14.74 17.66 14.7387 17.6284 14.7375C17.6209 14.7373 17.614 14.7369 17.6062 14.7365C17.5672 14.7349 17.5269 14.7337 17.4855 14.7325C17.466 14.7319 17.4454 14.7314 17.4251 14.7309C17.4029 14.7303 17.3812 14.7298 17.3584 14.7293C17.3326 14.7287 17.3059 14.7283 17.2795 14.7279C17.2614 14.7277 17.2436 14.7273 17.2252 14.7271C17.1956 14.7269 17.1654 14.746 17.135 14.7457C17.119 14.7457 17.1031 14.7647 17.087 14.7647L17.0255 14.7457C16.9534 14.7458 16.8794 14.7365 16.8031 14.738C16.7892 14.7382 16.775 14.7339 16.761 14.7341C16.6846 14.7355 16.6067 14.7354 16.5267 14.7382C16.5165 14.7384 16.5061 14.7377 16.4957 14.738C16.4122 14.7414 16.3261 14.7449 16.2391 14.7498C16.2239 14.7508 16.209 14.7512 16.1939 14.752C16.1074 14.7573 16.019 14.7634 15.9295 14.7704C15.9112 14.7718 15.893 14.7733 15.8746 14.7747C15.785 14.7819 15.6944 14.7905 15.6025 14.7999C15.5842 14.8018 15.5659 14.8035 15.5475 14.8057C15.4537 14.8158 15.359 14.8269 15.2635 14.8394C15.247 14.8417 15.2307 14.8439 15.2144 14.8462C15.1154 14.8594 15.0156 14.874 14.9149 14.89C14.9039 14.8918 14.8926 14.8937 14.8816 14.8956C14.7749 14.9129 14.6675 14.9318 14.5594 14.9527C14.4069 14.9824 13.4951 15.6214 12.7999 16.0868L12.8002 16.0862Z" fill="#2D2B29"/>
</svg>
