<svg width="24" height="25" viewBox="0 0 24 25" fill="none" xmlns="http://www.w3.org/2000/svg">
<path d="M12.0009 12.0846C8.38762 12.0846 5.86412 14.7405 5.86412 18.5086C5.86412 19.3923 6.58037 20.1326 7.46412 20.1326H16.5361C17.4199 20.1326 18.1361 19.3923 18.1361 18.5086C18.1361 14.7405 15.6132 12.0846 12.0009 12.0846ZM7.46412 18.5326C7.46412 15.6526 9.21787 13.7326 12.0009 13.7326C14.7839 13.7326 16.5361 15.6526 16.5361 18.5326H7.46412Z" fill="#2D2B29"/>
<path d="M12.0219 4.10059C10.0811 4.10059 8.502 5.73259 8.502 7.73871C8.502 9.74484 10.081 11.3768 12.0219 11.3768C13.9629 11.3768 15.542 9.74484 15.542 7.73871C15.542 5.73259 13.963 4.10059 12.0219 4.10059ZM12.0219 9.77671C10.9615 9.77671 10.102 8.86484 10.102 7.73859C10.102 6.61246 10.9615 5.70046 12.0219 5.70046C13.0825 5.70046 13.942 6.61246 13.942 7.73859C13.942 8.86484 13.0825 9.77671 12.0219 9.77671Z" fill="#2D2B29"/>
</svg>
