<svg width="24" height="25" viewBox="0 0 24 25" fill="none" xmlns="http://www.w3.org/2000/svg">
<path d="M8.47537 6.51999V12.0097C7.99537 11.9629 7.32562 12.0384 6.67037 12.3635C6.09374 12.6499 5.75962 13.1459 5.75962 13.7241C5.75962 14.4156 6.23449 15.0026 6.40662 15.192L9.22487 19.0079C9.24837 19.0399 9.27399 19.0701 9.30212 19.0981C10.4089 20.2049 12.79 20.1272 13.2616 20.1C13.7332 20.1274 16.1147 20.2047 17.2216 19.0982C17.8981 18.4216 18.2409 17.1565 18.2409 15.3375C18.2409 15.0175 18.2289 14.7754 18.2227 14.6735C18.2252 14.6171 18.2281 14.5195 18.2281 14.3909C18.2281 13.5274 18.0972 11.9477 17.2212 11.0721C16.668 10.5189 15.6766 10.1976 14.1757 10.09C13.7861 10.0621 13.4351 10.0529 13.1151 10.0522V6.51999C13.1151 5.55537 12.5185 4.12012 10.8751 4.12012C9.11437 4.12012 8.47512 5.55537 8.47512 6.51999H8.47537ZM11.5154 6.51999V10.872C11.5154 11.0927 11.5999 11.3037 11.7609 11.4549C11.9216 11.6061 12.1346 11.6841 12.3551 11.6706C13.8127 11.5805 15.6612 11.7731 16.0921 12.2037C16.4189 12.5305 16.6292 13.3891 16.6292 14.3915C16.6292 14.5327 16.6242 14.6222 16.6236 14.6316C16.6215 14.6666 16.6215 14.703 16.6241 14.7385C16.6242 14.7409 16.6412 14.9822 16.6412 15.3377C16.6412 16.8702 16.3567 17.7007 16.0904 17.967C15.6247 18.4326 14.188 18.5592 13.3174 18.5006C13.2809 18.498 13.2435 18.498 13.2071 18.5006C12.3569 18.5579 10.9685 18.4387 10.4692 18.0006L7.66524 14.2049C7.64424 14.1765 7.62162 14.1496 7.59712 14.1242C7.52799 14.0529 7.42287 13.9001 7.37787 13.7955C8.19462 13.391 8.76649 13.7147 8.81599 13.7445C9.05924 13.9224 9.37524 13.9395 9.64399 13.803C9.91262 13.6665 10.0755 13.3814 10.0755 13.08V6.52987C10.0755 6.16024 10.2314 5.72012 10.8755 5.72012C11.4184 5.72012 11.5155 6.22599 11.5154 6.51999Z" fill="#2D2B29"/>
</svg>
