<svg width="24" height="25" viewBox="0 0 24 25" fill="none" xmlns="http://www.w3.org/2000/svg">
<g clip-path="url(#clip0_2134_31)">
<path d="M12 10.9949C10.6766 10.9949 9.44 12.0715 9.44 13.395V20.115H11.04V13.395C11.04 12.9539 11.5589 12.5949 12 12.5949C12.4411 12.5949 12.96 12.9539 12.96 13.395V20.115H14.56V13.395C14.56 12.0715 13.3234 10.9949 12 10.9949Z" fill="#2D2B29"/>
<path d="M11.84 7.62761C12.7226 7.62761 13.4399 6.91036 13.4399 6.02824C13.4399 5.14486 12.7224 4.42761 11.84 4.42761C10.9575 4.42761 10.24 5.14499 10.24 6.02824C10.24 6.91036 10.9574 7.62761 11.84 7.62761Z" fill="#2D2B29"/>
<path d="M15.4719 4.59497C15.4719 6.83497 13.8213 8.61835 11.792 8.61835C9.76277 8.61835 8.11202 6.83497 8.11202 4.59497H6.51202C6.51202 7.79497 8.88065 10.2183 11.792 10.2183C14.7034 10.2183 17.072 7.79497 17.072 4.59497H15.4719Z" fill="#2D2B29"/>
</g>
<defs>
<clipPath id="clip0_2134_31">
<rect width="16" height="16" fill="white" transform="translate(4 4.11499)"/>
</clipPath>
</defs>
</svg>
