<svg width="24" height="25" viewBox="0 0 24 25" fill="none" xmlns="http://www.w3.org/2000/svg">
<path d="M11.2 10.8229H12.8V14.6629H11.2V10.8229Z" fill="#2D2B29"/>
<path d="M11.2 15.4629H12.8V17.2229H11.2V15.4629Z" fill="#2D2B29"/>
<path d="M19.915 18.9198L12.7151 4.56833C12.5794 4.29795 12.3026 4.12708 12 4.12708C11.6974 4.12708 11.4206 4.29783 11.285 4.56833L4.08499 18.9198C3.96049 19.1677 3.97349 19.4746 4.11924 19.7108C4.26487 19.9469 4.52262 20.1028 4.79999 20.1028H19.2C19.4774 20.1028 19.7352 19.9469 19.8807 19.7108C20.0265 19.4747 20.0395 19.1678 19.915 18.9198ZM6.09649 18.5028L12 6.73533L17.9036 18.5028H6.09649Z" fill="#2D2B29"/>
</svg>
