<svg width="24" height="25" viewBox="0 0 24 25" fill="none" xmlns="http://www.w3.org/2000/svg">
<path d="M16.96 4.11658H7.04C6.1565 4.11658 5.44 4.83308 5.44 5.71658V18.5166C5.44 19.4001 6.1565 20.1166 7.04 20.1166H16.96C17.8435 20.1166 18.56 19.4001 18.56 18.5166V5.71658C18.56 4.83308 17.8435 4.11658 16.96 4.11658ZM16.96 18.5166H7.04V5.71658H16.96V18.5166Z" fill="#2D2B29"/>
<path d="M15.52 7.95662C15.52 7.51474 15.1619 7.15662 14.72 7.15662H9.28001C8.83814 7.15662 8.48001 7.51474 8.48001 7.95662V16.2766C8.48001 16.7185 8.83814 17.0766 9.28001 17.0766H14.72C15.1619 17.0766 15.52 16.7185 15.52 16.2766V7.95662ZM10.08 8.75662H13.92V15.4766H10.08V8.75662Z" fill="#2D2B29"/>
</svg>
